<svg width="480.2"
     height="100%"
     version="1.1"
     xmlns="http://www.w3.org/2000/svg"
     xmlns:xlink="http://www.w3.org/1999/xlink"
     xml:space="preserve">
  <style>
    .st1 {
      fill: #070720
    }

    .st3 {
      opacity: .3
    }
  </style>
  <defs>
    <path id="XMLID_00000083796209680524828410000002831871126537323661_"
          d="M15.2 0h451.5v1240.7H15.2z" />
    <pattern id="bg"
             patternUnits="userSpaceOnUse"
             width="480.2"
             height="1240.7">
      <clipPath id="XMLID_00000048468460981155282020000003750668784618317197_">
        <use xlink:href="#XMLID_00000083796209680524828410000002831871126537323661_"
             style="overflow:visible" />
      </clipPath>
      <g style="clip-path:url(#XMLID_00000048468460981155282020000003750668784618317197_)">
        <path class="st1"
              d="M384.1 2051.6h-.6v.5l.4.1.2-.6z" />
        <path class="st1"
              d="m384 2051.9-.4.2-.4.2-.2-.5-86.1 25.9 58.4-90.6 27.7 64.7.5-.1.1.4.4-.2-28.5-66.7-60.6 94 89.3-26.9-.2-.4z" />
        <path class="st1"
              d="m383.5 2051.6-.5.1.2.5.4-.2-.1-.4zM290.2 1935.8l-.3.3.2.4.7-.3-.6-.4z" />
        <path class="st1"
              d="m290 1936.1.3-.3.6.4 17.6-7.5 44.3 54.8-61.9-47.3-.7.3-.2-.4-.3.3 65.4 50 .6-.6-47-58.2-19.6 8.4.6.4.3-.3z" />
        <path class="st1"
              d="m355.7 1986.4-.3-.3-.3-.3.3-.4-45.8-56.8 88.6 5.7-42.8 51 .3.4-.3.3.3.4 44.2-52.8-92.4-6 47.8 59.2.4-.4z" />
        <path class="st1"
              d="m355.7 1985.8-.3-.4-.3.4.3.3.3-.3zM384 2051.9l-.6-1.5-.2 1.6.4.1.4-.2z" />
        <path class="st1"
              d="m383.6 2052-.4-.1.2-1.6-27.5-64.2 42.5-50.8-15.1 114.9.6 1.5-.3.3.4.1 15.7-119.6-44.8 53.5 29 67.7.2-1.6-.5-.1zM296.2 2078.1l-1-1 .2 1.4.4-.1.4-.3z" />
        <path class="st1"
              d="m296.3 2078.4-.2-1.2-.6 1 .4.2h.4z" />
        <path class="st1"
              d="m295.9 2078.4-.4-.2.6-1-20.1-123 78.7 32.2-58.6 90.9.2 1.2-.4-.1.4.2 59.8-92.7-81.2-33.2 20.8 126.9.6-1-.4-.2z" />
        <path class="st1"
              d="m275.4 1953.5.2-.4.6.2 13.9-16.6 62.4 47.7-76.3-31.2-.4.5-.4-.2-.2.4 79.9 32.7.4-.8-65.7-50.3-15.2 18.1.6.2.2-.3z" />
        <path class="st1"
              d="m276.2 1953.3-.6-.2-.2.4.3.3.5-.5zM87.9 1899.7l-.3-.2-.3.3.3.3.3-.4z" />
        <path class="st1"
              d="m158.6 1936.4-34.8-29.8-36-6.9-.3.8.2-.4.2-.4 2.8 1.4 32.8 6.3 31.7 27.2-64.6-33.5-3-.6.1-.4-.2.4 70.7 36.6.4-.7z" />
        <path class="st1"
              d="m87.8 1899.7-.2.4-.1.4 3 .6-2.7-1.4z" />
        <path class="st1"
              d="m123.9 1907.2-.4-.2-.4-.2.2-.3-34.7-6.7 83.3-78.8-48.6 85.4.3.1-.1.5.4.2 50.2-88.3-.7-.6-86.8 82 37.1 7.1.2-.2z" />
        <path class="st1"
              d="m123.6 1906.6-.3-.1-.2.3.4.2.1-.4zM158.6 1936.4l-.5-.4-.2.6.4.2.3-.4z" />
        <path class="st1"
              d="m158.7 1936.9-.4-.2-.4-.2.2-.6-33.6-28.7 48.8-10.1-15.2 38.8.5.4-.3.4.4.2 16.1-40.9-52.2 10.8 35.9 30.7.2-.6z" />
        <path class="st1"
              d="m174 1896.1-.3.1v.4h.4l-.1-.5z" />
        <path class="st1"
              d="M174.5 1896.6h-.8v-.4l-49.2 10.2 48.9-86 .3 75.8.3-.1.1.4.4.1-.3-79.5-51.5 90.6 51.8-10.7v-.4zM158.9 1936.4l-.6-.1-.1.4.4.2.3-.5z" />
        <path class="st1"
              d="m158.3 1936.7.1-.4.6.1 15.4-39.2 98.8 55.5-114.2-16.3-.2.5-.5-.2-.1.4 117.1 16.7.3-.8-101.8-57.2-16.2 41.2.6.1.1-.4z" />
        <path class="st1"
              d="m275.6 1953.1-.3-.2-.2.3.3.3.2-.4zM174.1 1818.5l-.7-1.1-.1 1.3.4.1.4-.3z" />
        <path class="st1"
              d="m173.8 1818.7-.4-.3v.1l.8.5-.4-.3zM174.5 1896.1h-.4v.4h.4v-.4zM290.1 1935.7l-.4-.1-.2.4.4.2.2-.5zM308.4 1927.7l-.3.1v.3l.4-.1-.1-.3zM309 1927.7h-.4v.4h.4v-.4zM399.2 1933.6l-.4-.2-.2.4.4.1.2-.3z" />
        <path class="st1"
              d="m399.7 1933.5-.7.1.1.4.4.2.2-.7zM174.5 1898.5c1.4-.6 2.1-2.3 1.5-3.7-.6-1.4-2.3-2.1-3.7-1.5s-2.1 2.3-1.5 3.7c.6 1.5 2.2 2.1 3.7 1.5zM92.5 1912.2c6.7-2.8 9.7-10.6 6.9-17.2-2.8-6.7-10.6-9.7-17.2-6.9-6.6 2.8-9.7 10.6-6.9 17.2 2.9 6.6 10.6 9.7 17.2 6.9zM159.9 1942.7c3-1.3 4.4-4.8 3.1-7.9-1.3-3-4.8-4.4-7.9-3.1-3 1.3-4.4 4.8-3.1 7.8 1.4 3.1 4.9 4.5 7.9 3.2zM356.4 1992.4c3-1.3 4.4-4.8 3.1-7.9s-4.8-4.4-7.9-3.1c-3 1.3-4.4 4.8-3.1 7.8 1.3 3.1 4.8 4.5 7.9 3.2zM311.5 1931.3c1.6-.7 2.4-2.6 1.7-4.2s-2.6-2.4-4.2-1.7-2.4 2.6-1.7 4.2 2.6 2.4 4.2 1.7zM277.1 1957.2c1.7-.7 2.5-2.7 1.8-4.4-.7-1.7-2.7-2.5-4.4-1.8-1.7.7-2.5 2.7-1.8 4.4.8 1.8 2.7 2.6 4.4 1.8z" />
        <path class="st1"
              d="M401.2 1936.4c1.7-.7 2.5-2.7 1.8-4.4-.7-1.7-2.7-2.5-4.4-1.8-1.7.7-2.5 2.7-1.8 4.4.8 1.7 2.7 2.5 4.4 1.8zM322.3 1973.3c.9-.4 1.3-1.4.9-2.3s-1.4-1.3-2.3-.9-1.3 1.4-.9 2.3c.3.9 1.4 1.3 2.3.9zM296.8 2080.2c.9-.4 1.3-1.4.9-2.3-.4-.9-1.4-1.3-2.3-.9-.9.4-1.3 1.4-.9 2.3.4.9 1.5 1.3 2.3.9zM331.2 1957.6c2.2-.9 3.1-3.4 2.2-5.6s-3.4-3.1-5.6-2.2-3.2 3.4-2.2 5.6 3.5 3.1 5.6 2.2zM386.2 2059.3c4.9-2.1 7.2-7.8 5.1-12.8-2.1-5-7.8-7.2-12.8-5.1-4.9 2.1-7.2 7.8-5.1 12.8s7.8 7.3 12.8 5.1zM128.7 1863.4c.9-.4 1.3-1.4.9-2.3-.4-.9-1.4-1.3-2.3-.9-.9.4-1.3 1.4-.9 2.3s1.4 1.3 2.3.9zM174.6 1820.7c.9-.4 1.3-1.4.9-2.3s-1.4-1.3-2.3-.9-1.3 1.4-.9 2.3 1.4 1.3 2.3.9zM161.1 1844.8c.9-.4 1.3-1.4.9-2.3s-1.4-1.3-2.3-.9-1.3 1.4-.9 2.3 1.4 1.3 2.3.9zM249.2 1951c.9-.4 1.3-1.4.9-2.3s-1.4-1.3-2.3-.9-1.3 1.4-.9 2.3 1.4 1.3 2.3.9zM340.3 1931.5c.9-.4 1.3-1.4.9-2.3s-1.4-1.3-2.3-.9-1.3 1.4-.9 2.3 1.4 1.3 2.3.9zM291 1961.1c.5-.2.8-.8.6-1.4-.2-.5-.9-.8-1.4-.6-.5.2-.8.9-.6 1.4s.9.8 1.4.6zM290.8 2044.6c.5-.2.8-.8.6-1.4-.2-.6-.9-.8-1.4-.6s-.8.9-.6 1.4c.2.5.8.8 1.4.6zM290.4 1937.2c.5-.2.8-.9.6-1.4-.2-.5-.9-.8-1.4-.6-.5.2-.8.8-.6 1.4s.8.9 1.4.6zM294.7 1935.7c.5-.2.8-.8.6-1.4-.2-.5-.9-.8-1.4-.6-.5.2-.8.8-.6 1.4.3.6.9.9 1.4.6zM325.4 1963.6c.5-.2.8-.8.6-1.4-.2-.5-.9-.8-1.4-.6-.5.2-.8.9-.6 1.4.2.6.8.8 1.4.6zM256.6 1943.3c.5-.2.8-.9.6-1.4-.2-.5-.9-.8-1.4-.6-.5.2-.8.8-.6 1.4.2.5.9.8 1.4.6zM133.6 1907c.5-.2.8-.8.6-1.4-.2-.6-.9-.8-1.4-.6-.5.2-.8.9-.6 1.4.2.5.8.8 1.4.6zM104.6 1905c.5-.2.8-.8.6-1.4-.2-.5-.9-.8-1.4-.6-.5.2-.8.8-.6 1.4.3.6.9.8 1.4.6zM104.5 1910.2c.5-.2.8-.8.6-1.4-.2-.5-.9-.8-1.4-.6-.5.2-.8.9-.6 1.4.3.6.9.8 1.4.6zM134.7 1916.2c.5-.2.8-.9.6-1.4-.2-.5-.9-.8-1.4-.6s-.8.8-.6 1.4c.2.6.8.9 1.4.6zM88.1 2202.2l.4.4-.2-.2-.2-.2 1.6-1.4 12.2-18.3 24.6-12.3-36.9 30.6-1.1 1.7-.2-.2.2.2 40.4-33.6-.3-.5-27 13.5-13.5 20.3z" />
        <path class="st1"
              d="m128.5 2169 .2-.2-.1-.3-.4.2.3.3z" />
        <path class="st1"
              d="m128.7 2168.8.2-.2-.3-.3-.2.3.3.2z" />
        <path class="st1"
              d="m230.4 2248.6.3-.5-.2.2-.1.3-1.4-1.1-140.1-45.3 39.8-33.1 100.3 78.3 1.5.5-.1.3.2-.2-102-79.6-40.9 34.1 142.7 46.1z" />
        <path class="st1"
              d="M127.1 2168.2c0 1 .8 1.8 1.8 1.8s1.8-.8 1.8-1.8-.8-1.8-1.8-1.8-1.8.8-1.8 1.8zM142.4 363.7l.2-.2-.6-.5.1.8.3-.1z" />
        <path class="st1"
              d="m142.8 364.4-.1-.8h-.3l-.3.1-.1-.8-33.1-27.6 25.1-26.2 8 53.8.6.5-.2.2h.3l-8.3-55.8-26.4 27.6 34.8 29z" />
        <path class="st1"
              d="m133.9 308.7.2-.2-.2-.2-.2.2.2.2z" />
        <path class="st1"
              d="m134.2 308.5.2-.2-1-1.3.5 1.6.3-.1zM108.2 335.5l.3-.1v-.3h-.5l.2.4zM217.4 364l.2-.3v-.3h-1l.8.6z" />
        <path class="st1"
              d="m218.5 364.1-.8-.5-.2.3-.2.3-.8-.6-73.9-.1-8.1-54.3 82 54.3h1v.3l.2-.3-83.9-55.6 8.4 56.1 76.3.1z" />
        <path class="st1"
              d="m134.2 308.5.3-.1-.6-2.1v2.2h.3zM17.1 433.1l.2-.2-.3-.1-.1.2.2.1z" />
        <path class="st1"
              d="m17.4 433.2 76.4-21.8v-.1l-.3-.1-.3-.1.1-.1-67.2 19.2 69.5-24.8-2.2 5.7.1-.1.1.3.3.1 2.5-6.4.2-.6-79.4 28.4.2.4z" />
        <path class="st1"
              d="m93.3 411 .3.1-.1-.3-.2.2zM142.9 363.7l-.3-.2-.2.2-.2.2-.3-.2-45.4 40.2 12.1-67.9 33.2 27.7.3-.2.2.2.2-.2-34.2-28.7-12.7 70.7 47.3-41.8z" />
        <path class="st1"
              d="m142.2 363.9.2-.2-.2-.2-.3.2.3.2zM217.5 363.8l.2-.2-.3-.2-.1.4h.2zM136.3 435.8l.2-.2-.2-.2-.2.3.2.1z" />
        <path class="st1"
              d="m136.3 435.8.3-.5-.2.2-.1.3zM136.7 435.3l-.2.2.2-.2z" />
        <path class="st1"
              d="m93.2 411.3 43.1 24.5-3.5-2.7L94 411l2.3-5.8 36.5 27.9 3.9 2.2-40.7-31-2.7 6.8-.1.2z" />
        <path class="st1"
              d="m136.3 435.8.2-.2.1-.3-3.9-2.2 3.6 2.7z" />
        <path class="st1"
              d="m136.5 435.5.2-.2-.4-.3v.5h.2z" />
        <path class="st1"
              d="M136.8 436.1v-.5h-.6v-.5l-39.6-30.4 45.5-40.3-5.8 70.6.4.3-.2.2h.3l5.9-72.6-47.1 41.8 41.2 31.4z" />
        <path class="st1"
              d="M136.5 435.5h.3l.1-.8-.6.5.2.3z" />
        <path class="st1"
              d="m136.1 436.3.6-.5-.2-.2-.2-.2.6-.5 5.8-70.8 74.1.1-79.9 70.6-.1.8h-.3l.2.2 81.6-72.3-76.2-.1-6 72.9zM17.3 432.9l.2-.2-.7-.6.2.9.3-.1zM95.9 405l.1-.3-.1-.3-.6.2.6.4z" />
        <path class="st1"
              d="m96.1 404.7.1-.3-.4-.2-.1.4.4.1z" />
        <g style="opacity:.7">
          <path class="st1"
                d="m146 430.4.3.3.1-.4-.3-.1-.1.2zM146.5 430.3l.2-.3-.3-.1-.1.3.2.1zM120.5 286.7v-.3l-.3-.1-.2.5.5-.1zM115.2 433h.2l.1-.2-.3-.1v.3zM120.6 286.7l.3-.1-.1-.3-.3.1.1.3zM132.4 313.7l.2-.1v-.3h-.3l.1.4z" />
          <path class="st1"
                d="m115.2 299.5.2-.2.2-.2.2.1 4.7-12 11.1 25.1-15.8-13.2-.1.2-.3-.1-.2.3 17 14.1.5-.4-12.2-27.6-5.4 13.7.1.2z" />
          <path class="st1"
                d="m115.6 299.3.1-.2-.2-.1-.2.2.3.1zM115.4 299.6l.2-.2-.2-.2-.2.2.2.2z" />
          <path class="st1"
                d="m115.4 299.2.2.2-.2.2 16.4 13.6-61.1 26 44.7-39.6-.2-.2.2-.2-.2-.2-46.3 41 .3.5 63.7-27.1-17.6-14.6-.2.2.3.2z" />
          <path class="st1"
                d="m69.2 340.5.3-.1-.1-.3-.3.1.1.3z" />
          <path class="st1"
                d="m68.8 340.4.3-.1.3-.1.1.3 62.5-26.6-17 117.8-45.5-91.3-.3.1-.1-.3-.3.2 46.5 93.3 17.4-120.8-64 27.2.1.3z" />
          <path class="st1"
                d="M132.3 313.4h.3l-.3 2.3 13.6 114.2-30.4 2.5 16.8-116.7-.3-2.3h.3-.3l-17.2 119.7 31.8-2.6-14-117.1h-.6.3z" />
          <path class="st1"
                d="m132 313.4.3 2.3.3-2.3h-.6zM69 340.8l.3-.4-.3-.2-.3.1.3.5z" />
        </g>
        <path class="st1"
              d="M107 335c-.4 1 .1 2.1 1.1 2.5s2.1-.1 2.5-1.1-.1-2.1-1.1-2.5c-1-.3-2.1.1-2.5 1.1zM131.9 307.4c-.4 1 .1 2.1 1.1 2.5s2.1-.1 2.5-1.1c.4-1-.1-2.1-1.1-2.5s-2.1.1-2.5 1.1zM212.6 361.7c-.8 2.1.2 4.5 2.3 5.3s4.5-.2 5.3-2.3c.8-2.1-.2-4.5-2.3-5.3-2.1-.8-4.5.2-5.3 2.3zM14.2 431c-.7 1.8.2 3.9 2 4.6s3.9-.2 4.6-2c.7-1.8-.2-3.9-2-4.6-1.8-.7-3.8.1-4.6 2zM112.7 431.8c-.5 1.3.1 2.7 1.4 3.2s2.7-.1 3.2-1.4-.1-2.7-1.4-3.2-2.7.1-3.2 1.4zM133.9 436.2c-.4 1 .1 2.1 1.1 2.5s2.1-.1 2.5-1.1c.4-1-.1-2.1-1.1-2.5s-2.1.1-2.5 1.1zM112.4 299.1c-.4 1.1.1 2.4 1.2 2.8s2.4-.1 2.8-1.2-.1-2.4-1.2-2.9c-1.1-.5-2.3.2-2.8 1.3zM92 411.5c-.2.6.1 1.3.7 1.5s1.3-.1 1.5-.7-.1-1.3-.7-1.5-1.3.1-1.5.7zM66.8 340.2c-.5 1.2.1 2.5 1.3 3s2.5-.1 3-1.3-.1-2.5-1.3-3-2.5.1-3 1.3zM140.5 362.9c-.5 1.2.1 2.5 1.3 2.9 1.2.5 2.5-.1 2.9-1.3.5-1.2-.1-2.5-1.3-2.9-1.1-.4-2.4.2-2.9 1.3zM128.8 431.6c-.2.6.1 1.3.7 1.5.6.2 1.3-.1 1.5-.7s-.1-1.3-.7-1.5c-.5-.2-1.2.1-1.5.7zM92.2 403.8c-.6 1.5.1 3.3 1.7 3.9 1.5.6 3.3-.1 3.9-1.7.6-1.5-.1-3.3-1.7-3.9-1.6-.6-3.3.2-3.9 1.7zM98.5 313c-.2.6.1 1.3.7 1.5s1.3-.1 1.5-.7-.1-1.3-.7-1.5-1.3.1-1.5.7zM129.5 311.4c-.1.4 0 .8.4.9.4.1.8 0 .9-.4.1-.4 0-.8-.4-.9-.3-.2-.7 0-.9.4zM131.8 314.1c-.1.4 0 .8.4.9.4.1.8 0 .9-.4.1-.4 0-.8-.4-.9-.3-.2-.7 0-.9.4zM124.6 297c-.1.4 0 .8.4.9s.8 0 .9-.4 0-.8-.4-.9c-.3-.1-.7.1-.9.4zM119.7 286c-.1.4 0 .8.4.9s.8 0 .9-.4 0-.8-.4-.9c-.3-.1-.8.1-.9.4zM99 401.5c-.1.4 0 .8.4.9s.8 0 .9-.4 0-.8-.4-.9c-.3-.2-.7 0-.9.4zM194.3 348.6c-.1.4 0 .8.4.9s.8 0 .9-.4 0-.8-.4-.9c-.3-.1-.8 0-.9.4zM118.3 288.9c-.1.4 0 .8.4.9s.8 0 .9-.4 0-.8-.4-.9c-.3-.2-.7 0-.9.4zM137.4 311.1c-.2.6.1 1.3.7 1.6.6.2 1.3-.1 1.6-.7.2-.6-.1-1.3-.7-1.6-.7-.2-1.4.1-1.6.7zM452.6 1453.7l-.3-.3-.2.2-.2.2-.3-.3-66.9 44.6-10.4-120.1 77.3 75.5.3-.2.2.2.2-.2-78.7-76.9 10.7 122.7 68.3-45.4z" />
        <path class="st1"
              d="m452.1 1453.7-.2-.2-.3.2.3.3.2-.3z" />
        <path class="st1"
              d="m452.4 1453.8-.3-.1-.2.3.3.2.2-.4zM430.9 1498.1v-.3h-.3l-.1.4.4-.1z" />
        <path class="st1"
              d="m452.1 1453.7-.3-.1-.5 1 .9-.6-.1-.3z" />
        <path class="st1"
              d="m452.8 1452.8-.9.6.2.2.2.3-.9.6-20.6 42.9-45.2.9 65.8-43.9.5-1 .3.1-.2-.2-68.5 45.6 47.6-1 21.7-45.1z" />
        <path class="st1"
              d="m384.6 1499-.1-.3-.3.1.1.3.3-.1zM374 1377.7v-.3h-.3v.3h.3z" />
        <path class="st1"
              d="m384.5 1498.7-.1-.3-.5.2.4.3.2-.2zM374 1377.4v-.3l-.8.1.7.4.1-.2zM386.8 1538.5l.1-.5-.5.1.1.3.3.1zM401.1 1429l-.1-.6-.4.4.2.2h.3z" />
        <path class="st1"
              d="m401.1 1429.2-.2-.2-.2-.2.4-.4-13-82.5 52.2 48-39.2 34.5.1.6h-.3l.2.2 40.1-35.4-54-49.6 13.4 85.3.5-.3z" />
        <path class="st1"
              d="M387.9 1345v-.5l-.4.2.2.3h.2z" />
        <path class="st1"
              d="m388.1 1345.1-.3-.3-.2.2.2.3.3-.2zM295.9 1440.2l-.2-.1-.2.2.2.2.2-.3zM401.5 1429l-.5-.3-.2.3.1.3.6-.3z" />
        <path class="st1"
              d="m400.8 1429-.1-.3 1.8-.8 38.2-33.6 17.9 8.6-56.1 25-1.5 1.3-.2-.2.1.3 59.1-26.4-19.4-9.3-40 35.2.3.5-.1-.3z" />
        <path class="st1"
              d="m401.1 1429.2 1.5-1.3-1.8.8.1.3.2.2zM441.1 1393.7l-.2-.1-.1.3.3.1v-.3zM459.4 1403.1l.9-.3-.9-.3-.1.3.1.3z" />
        <path class="st1"
              d="m459.6 1402.9.1-.5-.5.1.1.3.3.1zM296 1440.7l.6-.7-.9.2.1.3.2.2z" />
        <path class="st1"
              d="m295.8 1440.5-.1-.3.9-.2 90.6-94.2-8.3 80.1-82.2 14-.6.7-.3-.1v.3l83.6-14.2 8.6-82.4-93.1 96.7.9-.2v-.2z" />
        <path class="st1"
              d="M379.5 1426.4v-.3h-.3v.3h.3z" />
        <path class="st1"
              d="M379.1 1426.6v-.6h.3l8.2-78.6 12.8 81.2-21-2.6v.3h-.3v.3l22.1 2.7-13.3-84.3h-.6l-8.5 81.5.3.1z" />
        <path class="st1"
              d="M379.2 1426.3h.3v.4l21 2.6-13.9 106-7.1-108.7h-.4l.1-.3h-.3l7.4 112.1h.6l14.4-109.7-22.3-2.8v.4h.2z" />
        <path class="st1"
              d="M379.5 1426.7v-.4h-.3v.3l.3.1zM372.6 1380c1.5.7 3.4.1 4.1-1.4s.1-3.4-1.4-4.1-3.4-.1-4.1 1.4c-.7 1.6-.1 3.4 1.4 4.1zM452 1455.1c1 .5 2.1 0 2.6-.9.5-1 .1-2.1-.9-2.6s-2.1-.1-2.6.9-.1 2.1.9 2.6zM439.6 1394.9c1 .5 2.1.1 2.6-.9s.1-2.1-.9-2.6-2.1-.1-2.6.9-.1 2.1.9 2.6zM385.5 1349c2 1 4.5.1 5.4-1.9 1-2 .1-4.5-1.9-5.4-2-1-4.5-.1-5.4 1.9-.9 1.9-.1 4.4 1.9 5.4zM383.1 1501.9c1.5.7 3.2.1 3.9-1.4.7-1.5.1-3.2-1.4-3.9-1.5-.7-3.2-.1-3.9 1.4s-.1 3.2 1.4 3.9zM418 1422.4c.6.3 1.3 0 1.6-.6.3-.6 0-1.3-.6-1.6-.6-.3-1.3 0-1.6.6-.3.6 0 1.3.6 1.6zM413.3 1418.2c.8.4 1.8.1 2.2-.8.4-.8.1-1.8-.8-2.2-.8-.4-1.8 0-2.2.8-.4.8-.1 1.8.8 2.2zM352.1 1382c.7.3 1.5 0 1.8-.6.3-.7 0-1.5-.6-1.8-.7-.3-1.5-.1-1.8.6-.3.7-.1 1.5.6 1.8zM389.3 1514.5c.9.4 1.9 0 2.3-.8s.1-1.9-.8-2.3-1.9-.1-2.3.8c-.4.8-.1 1.9.8 2.3zM455.4 1408.8c3 1.5 6.6.2 8.1-2.8s.2-6.6-2.8-8.1-6.6-.2-8.1 2.8-.2 6.7 2.8 8.1zM430 1500.8c1.3.6 2.8.1 3.5-1.2.6-1.3.1-2.9-1.2-3.5-1.3-.6-2.9-.1-3.5 1.2-.6 1.3-.1 2.9 1.2 3.5z" />
        <path class="st1"
              d="M377.3 1429c1.3.6 2.8.1 3.5-1.2.6-1.3.1-2.8-1.2-3.5-1.3-.6-2.9-.1-3.5 1.2-.6 1.3-.1 2.8 1.2 3.5zM385.3 1540.4c1 .5 2.2.1 2.7-1 .5-1 .1-2.2-1-2.7-1-.5-2.2-.1-2.7 1-.4 1 0 2.2 1 2.7zM399.7 1432.2c1.5.7 3.3.1 4.1-1.4.7-1.5.1-3.3-1.4-4s-3.3-.1-4 1.4c-.9 1.4-.2 3.2 1.3 4zM294.6 1442.8c1.5.7 3.3.1 4-1.4s.1-3.3-1.4-4-3.3-.1-4.1 1.4c-.6 1.5 0 3.3 1.5 4zM308.9 1592.5l.2.2.3-.2-.3-.3-.2.3z" />
        <path class="st1"
              d="m309 1592.9.1-.3-.3-.1-.3-.1.2-.3-52-32.6 72.9-10.7-20.8 43.3.3.2-.2.2.3.1 21.5-44.6-75.5 11.1 53.8 33.8z" />
        <path class="st1"
              d="m308.6 1592.4.3.1.2-.2-.3-.2-.2.3zM326.4 1492.4l-.1.3.5.2v-.5h-.4z" />
        <path class="st1"
              d="M326.1 1491.9v.5h.6v.5l11.8 5.7-8.3 47.4-3.5-53-.5-.2.1-.3h-.3l3.7 56.1h.6l8.8-50.3-13-6.4z" />
        <path class="st1"
              d="M329.7 1548.7h.4v-.6h.3l8.6-49 36.8 48.1-45.4 1-.1.3h-.3v.3l47-1-38.4-50.1-8.9 51z" />
        <path class="st1"
              d="M330.1 1548.1v.3h.3l.1-.3h-.4zM308.9 1592.5l.3.1.5-1-.9.6.1.3z" />
        <path class="st1"
              d="m308.1 1593.4.9-.6-.2-.2-.2-.2.9-.6 20.6-42.9 45.2-1-65.8 43.9-.5 1-.3-.1.2.2 68.4-45.6-47.6 1-21.6 45.1zM255.7 1559.1l.2.2h.3l.1-1-.6.8z" />
        <path class="st1"
              d="m255.9 1559.3.2.2.5-.6-.8.1.1.3z" />
        <path class="st1"
              d="m255.2 1559.7.8-.1v-.6l.8-.1 54.2-65.6 18.8 54.9-73 10.7-.5.6-.2-.2v.3l74.5-10.9-19.4-56.6-56 67.6z" />
        <path class="st1"
              d="m310.5 1492.4.1.4.3-.1.3-.1.1.4 14.8-.3 3.5 53.5-18.3-53.2h-.4v-.3l-.3.1 19.1 55.7.6-.1-3.7-56.3-16.1.3z" />
        <path class="st1"
              d="M310.9 1492.7v.3h.4l-.1-.4-.3.1zM294.5 1414.8l.2.2.2-.2-.2-.1-.2.1z" />
        <path class="st1"
              d="M310.9 1492.4v.3l.3-.1-.1-.2h-.2z" />
        <path class="st1"
              d="m294.4 1415.1 16.3 77.9h.3v-.6h.2l-15.5-74.1 30.3 73.8-14.8.3.1.2h-.3v.3l15.9-.3-31.9-77.7-.6.2zM334.3 1379.7l.2.2.3.1.3-.8-.8.5z" />
        <path class="st1"
              d="m294.2 1415 .2.2.2-.2.2-.2.2.2 39.2-34.6 19.3 100.9L295 1415l-.2.2-.2-.2-.2.2 60.2 68.2-19.9-104.1-40.5 35.7z" />
        <path class="st1"
              d="m294.7 1415 .2.2.2-.2-.2-.2-.2.2z" />
        <path class="st1"
              d="m294.4 1415.2 31.9 77.5.3-.1-.1-.3-.1-.3.3-.1-30.9-75.4 58 65.7-27 9.7.1.3-.3.1.1.3 28.2-10.1-59.8-67.7-.7.4z" />
        <path class="st1"
              d="m326.3 1492 .1.3.3-.1-.1-.3-.3.1zM354.1 1482.1v.3l.3-.1v-.2h-.3z" />
        <path class="st1"
              d="m325.6 1492.3 13.3 6.4.2-.2-.2-.2-.2-.2.2-.2-11.6-5.6 25.8-9.3-14.3 14.8.2.1-.1.3.2.2 15.3-15.9-.3-.5-28.5 10.3z" />
        <path class="st1"
              d="m338.6 1498.1.2.2.1-.3-.2-.1-.1.2zM338.8 1498.3l.2.2.2-.2-.2-.2-.2.2z" />
        <path class="st1"
              d="m338.4 1498.3.2.2.2-.2.2-.2.2.2 14.8-15.4 21.6 62.9-36.3-47.4-.2.2-.2-.2-.2.2 37.6 49.1.5-.3-22.5-65.5-15.9 16.4z" />
        <path class="st1"
              d="m376.3 1547.1.1.3.3-.1-.1-.3-.3.1zM354.1 1482.4v.3l2.3-.1-2.3-.5v.3z" />
        <path class="st1"
              d="m376.5 1547.4.1.3.5-.2-.4-.3-.2.2zM404.8 1475.7l-.5.6.8-.1v-.3l-.3-.2z" />
        <path class="st1"
              d="M405 1476v.3l-.8.1-29.8 31-24.4-26.9 54.2-4.2.5-.6.3.3v-.3l-56.3 4.3 25.7 28.2 31.4-32.6-.8.1v.3z" />
        <path class="st1"
              d="m349.2 1480.4.2.2.2-.1-.2-.2-.2.1z" />
        <path class="st1"
              d="m349.3 1480 .2.2.2.2-.2.1 24.5 27-133 42.5 108.5-69.5-.2-.2.2-.2-.2-.1-110.7 70.9.2.5 136.1-43.5-25.5-28.1-.1.2z" />
        <path class="st1"
              d="m349.3 1480-1.4.9 1.6-.3-.1-.3-.1-.3zM374.1 1507.7l-.1.5.5-.1-.1-.3-.3-.1z" />
        <path class="st1"
              d="m349.4 1479.9-2.1.5 2.2.1v-.3l-.1-.3zM238.6 1550.9l-.5.5h.7v-.3l-.2-.2zM404.8 1476.1l.2.3.2-.2-.2-.2-.2.1z" />
        <path class="st1"
              d="m238.5 1551.3.2.3.3-.2-.2-.2-.3.1z" />
        <path class="st1"
              d="M240.2 1548.8c-1.7-.8-3.8-.1-4.6 1.6s-.1 3.8 1.6 4.6c1.7.8 3.8.1 4.6-1.6.9-1.7.1-3.8-1.6-4.6zM349.3 1478.5c-1-.5-2.1-.1-2.6.9s-.1 2.1.9 2.6 2.1.1 2.6-.9.1-2.1-.9-2.6zM256.5 1557.9c-1-.5-2.1 0-2.6.9-.5 1-.1 2.1.9 2.6s2.1.1 2.6-.9.1-2.1-.9-2.6zM309 1591.1c-1-.5-2.1-.1-2.6.9s-.1 2.1.9 2.6 2.1.1 2.6-.9.1-2.1-.9-2.6zM405.6 1474.2c-1-.5-2.1-.1-2.6.9s-.1 2.1.9 2.6 2.1.1 2.6-.9c.4-1 0-2.2-.9-2.6zM337.4 1516.9c-1.8-.8-3.9-.1-4.7 1.7-.9 1.8-.1 3.9 1.7 4.7 1.8.8 3.9.1 4.7-1.7.8-1.7.1-3.8-1.7-4.7zM290.6 1515.7c-2-1-4.5-.1-5.4 1.9-1 2-.1 4.5 1.9 5.4 2 1 4.5.1 5.4-1.9s.1-4.4-1.9-5.4zM334.5 1378.6c-1-.5-2.1-.1-2.6.9s-.1 2.1.9 2.6 2.1 0 2.6-.9.1-2.2-.9-2.6zM297.7 1409.6c-3.3-1.6-7.3-.2-8.9 3.1-1.6 3.3-.2 7.3 3.1 8.9 3.3 1.6 7.3.2 8.9-3.1 1.6-3.3.2-7.3-3.1-8.9zM339.4 1497c-.6-.3-1.3 0-1.6.6-.3.6 0 1.3.6 1.6.6.3 1.3 0 1.6-.6.2-.6 0-1.3-.6-1.6zM377.9 1544.2c-1.5-.7-3.2-.1-3.9 1.4-.7 1.5-.1 3.2 1.4 3.9 1.5.7 3.2.1 3.9-1.4.7-1.4.1-3.1-1.4-3.9zM310.8 1491.3c-.4-.2-.8 0-1 .3s0 .8.3 1c.4.2.8 0 1-.3.3-.4.1-.8-.3-1zM271.8 1540c-.4-.2-.8 0-1 .3-.2.4 0 .8.3 1 .4.2.8 0 1-.3.2-.4.1-.8-.3-1zM351.6 1513.6c-.4-.2-.8 0-1 .3s0 .8.3.9c.4.2.8 0 1-.3.3-.3.1-.8-.3-.9zM364.6 1509.4c-.6-.3-1.4 0-1.7.6-.3.6 0 1.4.6 1.7.6.3 1.4 0 1.7-.6.3-.7 0-1.5-.6-1.7zM371.7 1531.7c-.9-.4-1.9-.1-2.3.8s-.1 1.9.8 2.3 1.9.1 2.3-.8 0-1.9-.8-2.3zM258.1 1537.8c-.4-.2-.8 0-1 .3-.2.4 0 .8.3 1 .4.2.8 0 1-.3.2-.4.1-.8-.3-1zM330.9 1545.4c-1.3-.6-2.8-.1-3.5 1.2-.6 1.3-.1 2.8 1.2 3.5 1.3.6 2.8.1 3.5-1.2.7-1.4.1-2.9-1.2-3.5zM375.6 1505.8c-1-.5-2.2-.1-2.7 1-.5 1-.1 2.2 1 2.7 1 .5 2.2.1 2.7-1 .5-1 .1-2.2-1-2.7zM396.9 754.1l-.3-.3-.2.2-.2.2-.3-.3-66.8 44.6-10.4-120L396 754l.3-.2.2.3.2-.2L318 677l10.6 122.7 68.3-45.6z" />
        <path class="st1"
              d="m396.4 754.1-.2-.2-.3.2.3.3.2-.3z" />
        <path class="st1"
              d="m396.7 754.2-.3-.1-.2.2.3.2.2-.3zM375.2 798.5v-.3h-.3l-.1.4.4-.1z" />
        <path class="st1"
              d="m396.4 754.1-.3-.1-.5 1 .9-.6-.1-.3z" />
        <path class="st1"
              d="m397.1 753.2-.9.6.2.3.2.3-.9.6-20.6 42.9-45.2 1 65.8-43.9.5-1 .3.1-.2-.3-68.5 45.6 47.6-1 21.7-45.2z" />
        <path class="st1"
              d="m328.9 799.4-.1-.3-.3.1.1.3.3-.1zM318.3 678.1v-.3h-.3v.3h.3z" />
        <path class="st1"
              d="m328.8 799.2-.1-.3-.5.2.4.3.2-.2zM318.3 677.8v-.3l-.8.1.7.4.1-.2zM331.1 838.9l.1-.5-.5.1.1.3.3.1zM345.5 729.4l-.1-.6-.4.4.2.2h.3z" />
        <path class="st1"
              d="m345.4 729.6-.2-.2-.2-.2.4-.4-13-82.5 52.2 48-39.2 34.5.1.6h-.3l.2.2 40.1-35.3-54-49.6L345 730l.4-.4z" />
        <path class="st1"
              d="M332.2 645.5v-.5l-.4.2.1.3h.3z" />
        <path class="st1"
              d="m332.4 645.5-.3-.3-.2.2.2.3.3-.2zM240.2 740.7l-.2-.1-.2.2.2.2.2-.3zM345.9 729.4l-.5-.3-.2.3.1.3.6-.3z" />
        <path class="st1"
              d="m345.2 729.4-.1-.3 1.8-.8 38.2-33.7 17.9 8.6-56.1 25.1-1.5 1.3-.2-.2.1.3 59.1-26.4L385 694l-40 35.3.3.5-.1-.4z" />
        <path class="st1"
              d="m345.4 729.6 1.5-1.3-1.8.8.1.3.2.2zM385.4 694.1l-.2-.1-.1.3.3.1v-.3zM403.8 703.5l.9-.3-.9-.3-.1.3.1.3z" />
        <path class="st1"
              d="m404 703.3.1-.5-.5.1.1.3.3.1zM240.3 741.1l.6-.7-.9.2.1.3.2.2z" />
        <path class="st1"
              d="m240.1 740.9-.1-.3.9-.2 90.6-94.2-8.3 80.1-82.2 14-.6.7-.3-.1v.3l83.6-14.2 8.6-82.4-93.1 96.7.9-.2v-.2z" />
        <path class="st1"
              d="M323.8 726.8v-.3h-.3v.3h.3z" />
        <path class="st1"
              d="M323.4 727v-.6h.3l8.2-78.6 12.8 81.2-21-2.6v.3h-.3v.3l22.1 2.7-13.3-84.3h-.6l-8.5 81.5.3.1z" />
        <path class="st1"
              d="M323.5 726.7h.3v.4l21 2.6-13.9 106.1-7.1-108.7h-.4l.1-.4h-.3l7.3 112.1h.6l14.4-109.7-22.3-2.7v.4l.3-.1z" />
        <path class="st1"
              d="M323.8 727.1v-.4h-.3v.3l.3.1zM316.9 680.4c1.5.7 3.4.1 4.1-1.4s.1-3.4-1.4-4.1c-1.5-.7-3.4-.1-4.1 1.4s-.1 3.4 1.4 4.1zM396.3 755.5c1 .5 2.1.1 2.6-.9s.1-2.1-.9-2.6-2.1-.1-2.6.9c-.5.9-.1 2.1.9 2.6zM383.9 695.3c1 .5 2.1.1 2.6-.9s.1-2.1-.9-2.6-2.1-.1-2.6.9c-.5.9-.1 2.1.9 2.6zM329.9 649.4c2 1 4.5.1 5.4-1.9 1-2 .1-4.5-1.9-5.4-2-1-4.5-.1-5.4 1.9-1 1.9-.2 4.4 1.9 5.4zM327.4 802.3c1.5.7 3.2.1 3.9-1.4.7-1.5.1-3.2-1.4-3.9s-3.2-.1-3.9 1.4-.1 3.2 1.4 3.9zM362.3 722.8c.6.3 1.3 0 1.6-.6.3-.6 0-1.3-.6-1.6s-1.3 0-1.6.6 0 1.3.6 1.6zM357.6 718.6c.8.4 1.8.1 2.2-.8.4-.8.1-1.8-.8-2.2-.8-.4-1.8-.1-2.2.8-.4.8 0 1.8.8 2.2zM296.4 682.4c.7.3 1.5 0 1.8-.6.3-.7 0-1.5-.6-1.8-.7-.3-1.5 0-1.8.6-.3.7-.1 1.5.6 1.8zM333.6 814.9c.9.4 1.9.1 2.3-.8.4-.9.1-1.9-.8-2.3-.9-.4-1.9-.1-2.3.8-.4.9-.1 1.9.8 2.3zM399.7 709.2c3 1.5 6.6.2 8.1-2.8s.2-6.6-2.8-8.1-6.6-.2-8.1 2.8-.2 6.7 2.8 8.1zM374.4 801.2c1.3.6 2.8.1 3.5-1.2.6-1.3.1-2.8-1.2-3.5-1.3-.6-2.8-.1-3.5 1.2-.7 1.3-.1 2.9 1.2 3.5z" />
        <path class="st1"
              d="M321.6 729.4c1.3.6 2.8.1 3.5-1.2.6-1.3.1-2.8-1.2-3.5-1.3-.6-2.8-.1-3.5 1.2-.6 1.3-.1 2.8 1.2 3.5zM329.6 840.8c1 .5 2.2.1 2.7-1 .5-1 .1-2.2-1-2.7-1-.5-2.2-.1-2.7 1-.4 1 0 2.2 1 2.7zM344 732.6c1.5.7 3.3.1 4-1.4s.1-3.3-1.4-4-3.3-.1-4 1.4-.1 3.2 1.4 4zM238.9 743.2c1.5.7 3.3.1 4.1-1.4.7-1.5.1-3.3-1.4-4.1-1.5-.7-3.3-.1-4 1.4-.8 1.6-.2 3.4 1.3 4.1zM238.8 715.2l.2.2.2-.3-.2-.1-.2.2zM278.7 680.1l.2.3.3.1.3-.8-.8.4zM239 715.5l.2.2.2-.2-.2-.2-.2.2zM320.7 847.6l.1.3.3-.1-.1-.3-.3.1z" />
        <path class="st1"
              d="m320.8 847.8.1.3.5-.2-.4-.3-.2.2zM349.1 776.2l-.5.6.8-.1v-.3l-.3-.2zM318.5 808.1l-.1.5.5-.1-.1-.3-.3-.1z" />
        <path class="st1"
              d="m349.1 776.5.2.3.2-.3-.2-.2-.2.2z" />
        <path class="st1"
              d="M349.9 774.6c-1-.5-2.1-.1-2.6.9s-.1 2.1.9 2.6 2.1.1 2.6-.9 0-2.1-.9-2.6zM165.7 1016.7l.2-.3-.3-.2-.3.3.4.2zM143.5 1089l.4-.6h-.7v.4l.3.2z" />
        <path class="st1"
              d="M143.1 1089.1v-.8h.7l64-88 3.9 92.3-67.9-4.3-.4.6-.3-.2v.4l69.5 4.4-4-95.5-66.2 91 .7.1z" />
        <path class="st1"
              d="m208.6 999.4.4-.5-.6-.2-.1.4.3.3z" />
        <path class="st1"
              d="M208.7 999.7v-.5h-.4l-.1.4.5.1zM36.1 1002.4l-.1-.3h-.3v.4l.4-.1zM143.8 1089.4l-.2-.8-.4.1-.1.4.7.3z" />
        <path class="st1"
              d="m143.1 1088.7.2-.4 2.5.9 66.2 4.2 8.6 24.4-74.8-28.6-2.6-.2-.1-.3-.1.4 78.8 30.1-9.3-26.5-69.4-4.4-.2.8.2-.4z" />
        <path class="st1"
              d="m143.1 1089.1 2.6.2-2.5-.9-.2.4.1.3zM212.8 1093.3l-.1-.3-.4.1.2.3.3-.1zM221 1118.9l1.1.6-.5-1.1-.4.2-.2.3z" />
        <path class="st1"
              d="m221.4 1118.9.5-.4-.6-.3-.2.3.3.4zM35.7 1002.9h1.2l-1-.7-.2.3v.4z" />
        <path class="st1"
              d="m35.7 1002.5.2-.3 1 .7 170.3-3.3-81.6 66.2-88.7-62.9h-1.2v-.4l-.2.3 90.1 64 83.8-68-174.9 3.4 1 .7.2-.4z" />
        <path class="st1"
              d="m125.9 1066.6.3-.2-.2-.3-.3.2.2.3z" />
        <path class="st1"
              d="m125.3 1066.5.3-.2.3-.2.2.3 80-65-63.1 86.7-17-21.7-.3.2-.2-.3-.2.2 17.8 22.9 65.5-90-.6-.5-83 67.3.3.3z" />
        <path class="st1"
              d="m125.6 1066.9.3-.4-.3-.2-.3.2.3.4zM210.3 1093c.5 1.3 1.9 2 3.2 1.5 1.3-.4 2-1.9 1.5-3.2-.5-1.3-1.9-2-3.2-1.5-1.3.4-2 1.8-1.5 3.2zM202.8 1000.8c1 2.8 4 4.2 6.8 3.3 2.8-1 4.2-4 3.3-6.8-1-2.8-4-4.2-6.8-3.3-2.8 1-4.3 4.1-3.3 6.8zM165 1098.4c.3.8 1.2 1.2 2 .9.8-.3 1.2-1.2.9-2s-1.2-1.2-2-.9c-.8.3-1.2 1.2-.9 2zM164.6 1090.2c.4 1.1 1.6 1.8 2.8 1.3 1.1-.4 1.7-1.7 1.3-2.8-.4-1.2-1.6-1.8-2.8-1.3-1.1.4-1.7 1.7-1.3 2.8zM212 1120.4c1.4 4.1 6 6.3 10.1 4.8 4.1-1.4 6.3-6 4.8-10.1s-6-6.3-10.1-4.8c-4.1 1.4-6.2 6-4.8 10.1z" />
        <path class="st1"
              d="M121.5 1067c.6 1.8 2.6 2.7 4.3 2.1 1.8-.6 2.7-2.6 2.1-4.3-.6-1.8-2.6-2.7-4.3-2.1-1.8.6-2.8 2.5-2.1 4.3zM139.2 1090.6c.7 2.1 3 3.1 5 2.4 2.1-.7 3.1-3 2.4-5-.7-2.1-3-3.1-5-2.4-2.1.7-3.2 2.9-2.4 5zM32.5 1003.6c.7 2.1 3 3.1 5 2.4 2.1-.7 3.1-3 2.4-5-.7-2.1-3-3.1-5-2.4-2.1.7-3.1 2.9-2.4 5zM58.2 977.6v.4l.4-.1v-.3h-.4zM152.1 2019.2c.1 16.2 2.7 32.3 8.4 48.1 22.9 64 83.2 122.9 129.9 185.6 33.1 44.4 54.2 91.4 54.4 137.3.1 16-2.4 31.9-7.7 47.6-3.5 10.1-7.9 20.1-13.1 30 .6.2 1.2.4 1.7.6 5.1-9.9 9.6-19.9 13.1-30 5.4-15.8 7.9-32 7.8-48.2-.3-46.5-21.6-93.9-54.8-138.4-46.8-62.7-107-121.6-129.6-185.1-5.5-15.6-8.1-31.4-8.2-47.5-.1-22.1 4.6-44.6 13.2-66.9-.6-.2-1.2-.4-1.7-.7-8.7 22.5-13.5 45.2-13.4 67.6zM333.1 1597.3c4.9 16.3 7.6 32.6 7.7 48.8.1 16-2.4 31.9-7.7 47.5-21.9 63.7-81.5 123.2-127.6 186.5-2.2 3-4.2 5.9-6.3 8.9.5.3 1 .6 1.5 1 2-2.9 4.1-5.9 6.2-8.8 46-63.1 105.7-122.7 127.9-187 5.4-15.8 7.9-31.9 7.8-48.1-.1-16.5-2.9-33-7.8-49.5-.5.3-1.1.5-1.7.7z" />
        <path class="st1"
              d="M327.6 2084.1c-26 56.8-78.5 110.9-120.1 168-4.3 5.9-8.3 11.8-12.2 17.7.6.2 1.2.4 1.7.7 3.8-5.8 7.8-11.6 12-17.4 41.3-56.7 93.6-110.5 119.9-167.4-.5-.4-1-1-1.3-1.6zM158.2 1694.2c.1.3.2.7.3 1 22.9 64 83.2 123 129.9 185.6 5.3 7.2 10.3 14.4 15 21.7.3-.6.7-1.1 1.2-1.6-4.6-7.1-9.5-14.2-14.7-21.2-46.8-62.7-107-121.7-129.6-185.1-.1-.2-.1-.5-.2-.8-.7.2-1.3.3-1.9.4zM324.8 1202.1c-9.5-22.6-22.8-44.9-38.9-66.5l-1.5 1.1c16.3 21.9 29.7 44.4 39.1 67.1.4-.6.8-1.2 1.3-1.7zM328.2 1329.1c-23.8 60.9-80.4 118.2-124.8 179-12.7 17.5-23.6 35.4-32.2 53.5.6.2 1.1.5 1.7.8 8.5-18 19.4-35.8 32.1-53.2 43.7-60 99.8-116.8 124.3-177.5-.5-.8-.8-1.7-1.1-2.6zM281.6 1175.2l-73.2.4v1.6l73.2-.4v-1.6zM319.8 1306.5l-146 .8v1.6l146-.8v-1.6zM300.8 1339.5l-109.4.6v1.6l109.4-.6v-1.6zM267.2 1405.4l-44.8.2v1.6l44.8-.2v-1.6z" />
        <path class="st1"
              d="M204.4 1171.7c-2.6 0-4.7 2.1-4.7 4.7h1.6c0-1.7 1.4-3.1 3.1-3.1s3.1 1.4 3.2 3.1c0 1.7-1.4 3.1-3.1 3.2-1.7 0-3.1-1.4-3.2-3.1h-1.6c0 2.6 2.1 4.7 4.7 4.7s4.7-2.1 4.7-4.7-2.1-4.8-4.7-4.8zM302.7 1336.6c-1.9 0-3.5 1.6-3.5 3.5h1.6c0-1.1.9-2 2-2s2 .9 2 1.9c0 1.1-.9 2-1.9 2-1.1 0-2-.9-2-1.9h-1.6c0 1.9 1.6 3.5 3.5 3.5s3.5-1.6 3.5-3.5c0-2-1.6-3.5-3.6-3.5zM269.4 1402.1c-2 0-3.5 1.6-3.5 3.5h1.6c0-1.1.9-2 1.9-2 1.1 0 2 .9 2 1.9 0 1.1-.9 2-1.9 2s-2-.9-2-2h-1.6c0 2 1.6 3.5 3.5 3.5s3.5-1.6 3.5-3.5c0-1.8-1.5-3.4-3.5-3.4zM170.2 1302.5c-2.9 0-5.2 2.4-5.2 5.3s2.4 5.2 5.3 5.2 5.2-2.4 5.2-5.3h-1.6c0 2-1.6 3.7-3.7 3.7-2 0-3.7-1.6-3.7-3.7 0-2 1.6-3.7 3.7-3.7 2 0 3.7 1.6 3.7 3.6h1.6c-.1-2.7-2.4-5.1-5.3-5.1zM284.2 1172.1c-2.2 0-3.9 1.8-3.9 3.9 0 2.2 1.8 3.9 3.9 3.9s3.9-1.8 3.9-3.9c.1-2.2-1.7-3.9-3.9-3.9zM319.2 1303.2c-2.2 0-3.9 1.8-3.9 3.9 0 2.2 1.8 3.9 3.9 3.9 2.2 0 3.9-1.8 3.9-3.9 0-2.2-1.7-3.9-3.9-3.9zM222.1 1404.4c-1.2 0-2.1 1-2.1 2.2s1 2.2 2.2 2.1c1.2 0 2.1-1 2.1-2.2-.1-1.2-1-2.1-2.2-2.1zM188.6 1337c-2.2 0-3.9 1.8-3.9 3.9 0 2.2 1.8 3.9 3.9 3.9 2.2 0 3.9-1.8 3.9-3.9.1-2.1-1.7-3.9-3.9-3.9zM260.7 1775.5l-30.9.2v1.6l30.9-.2v-1.6zM302.4 1718l-110.5.6v1.6l110.5-.6v-1.6zM322.1 1652.2l-145.6.8v1.6l145.6-.8v-1.6zM301 1586.5l-109.4.6v1.6l109.4-.6v-1.6zM283 1553.7l-73.2.4v1.6l73.2-.4v-1.6zM270.1 1521l-44.8.2v1.5l44.8-.2v-1.5z" />
        <path class="st1"
              d="M227.4 1772.8c-2 0-3.6 1.7-3.6 3.7s1.6 3.7 3.7 3.7c2 0 3.7-1.7 3.7-3.7h-1.6c0 1.2-.9 2.1-2.1 2.1s-2.1-.9-2.1-2.1.9-2.1 2.1-2.1 2.1.9 2.1 2.1h1.6c-.1-2.1-1.7-3.7-3.8-3.7zM189.6 1716.1c-1.9 0-3.5 1.6-3.5 3.5s1.6 3.5 3.5 3.5 3.5-1.6 3.5-3.5h-1.5c0 1.1-.9 2-1.9 2-1.1 0-2-.9-2-2s.9-2 1.9-2c1.1 0 2 .9 2 2h1.6c-.1-1.9-1.7-3.5-3.6-3.5zM189.6 1584.6c-1.9 0-3.5 1.6-3.5 3.5 0 2 1.6 3.5 3.5 3.5s3.5-1.6 3.5-3.5h-1.5c0 1.1-.9 2-1.9 2-1.1 0-2-.9-2-2s.9-2 2-2 2 .9 2 2h1.6c-.2-2-1.8-3.5-3.7-3.5zM222.9 1519.1c-1.9 0-3.5 1.6-3.5 3.5s1.6 3.5 3.5 3.5 3.5-1.6 3.5-3.5h-1.6c0 1.1-.9 2-1.9 2-1.1 0-2-.9-2-1.9 0-1.1.9-2 1.9-2 1.1 0 2 .9 2 1.9h1.6c0-2-1.6-3.6-3.5-3.5zM287.5 1548.5c-2.9 0-5.2 2.4-5.2 5.3h1.6c0-2 1.6-3.7 3.6-3.7s3.7 1.6 3.7 3.7c0 2-1.6 3.7-3.7 3.7-2 0-3.7-1.6-3.7-3.6h-1.6c0 2.9 2.4 5.2 5.3 5.2s5.2-2.4 5.2-5.3c.1-3-2.3-5.4-5.2-5.3zM261.6 1773.4c-1.2 0-2.2 1-2.2 2.3 0 1.2 1 2.2 2.3 2.2 1.2 0 2.2-1 2.2-2.3 0-1.2-1-2.2-2.3-2.2zM304.5 1714.9c-2.2 0-3.9 1.8-3.9 3.9 0 2.2 1.8 3.9 3.9 3.9 2.2 0 3.9-1.8 3.9-3.9 0-2.2-1.7-3.9-3.9-3.9zM321.8 1650c-2.2 0-3.9 1.8-3.9 3.9s1.8 3.9 3.9 3.9c2.2 0 3.9-1.8 3.9-3.9 0-2.2-1.7-3.9-3.9-3.9zM210.1 1550.4c-2.2 0-3.9 1.8-3.9 4 0 2.1 1.8 3.9 3.9 3.9 2.2 0 3.9-1.8 3.9-3.9s-1.7-4-3.9-4zM270.3 1519.5c-1.2 0-2.2 1-2.1 2.2 0 1.2 1 2.2 2.2 2.1 1.2 0 2.2-1 2.1-2.2-.1-1.1-1.1-2.1-2.2-2.1zM303.7 1583.4c-2.2 0-3.9 1.8-3.9 3.9 0 2.2 1.8 3.9 3.9 3.9 2.2 0 3.9-1.8 3.9-3.9 0-2.2-1.8-4-3.9-3.9zM177.1 1649.6c-2.2 0-3.9 1.8-3.9 3.9 0 2.2 1.8 3.9 3.9 3.9 2.2 0 3.9-1.8 3.9-3.9 0-2.2-1.7-3.9-3.9-3.9zM285.6 1916.9l-68.5.4v1.6l68.5-.4v-1.6zM304.5 1949.7l-110.5.6v1.6l110.5-.6v-1.6zM317 1982.5l-129.6.7v1.6l129.6-.7v-1.6zM320 2015.4l-145.6.8v1.6l145.6-.8v-1.6zM286.6 2114.2l-73.2.4v1.6l73.2-.4v-1.6zM271.2 2147.1l-44.8.2v1.6l44.8-.2v-1.6z" />
        <path class="st1"
              d="M213.7 1913.4c-2.6 0-4.7 2.1-4.7 4.7h1.6c0-1.7 1.4-3.1 3.1-3.1s3.1 1.4 3.2 3.1c0 1.7-1.4 3.1-3.1 3.1s-3.1-1.4-3.2-3.1H209c0 2.6 2.1 4.7 4.7 4.7s4.7-2.1 4.7-4.7-2.1-4.7-4.7-4.7zM306.7 1946.7c-1.9 0-3.5 1.6-3.5 3.5h1.6c0-1.1.9-2 2-2s2 .9 2 1.9c0 1.1-.9 2-1.9 2-1.1 0-2-.9-2-1.9h-1.6c0 1.9 1.6 3.5 3.5 3.5s3.5-1.6 3.5-3.5c-.1-1.9-1.7-3.5-3.6-3.5zM273.4 2143.8c-2 0-3.5 1.6-3.5 3.5h1.6c0-1.1.9-2 1.9-2 1.1 0 2 .9 2 1.9 0 1.1-.9 2-1.9 2-1.1 0-2-.9-2-2h-1.6c0 1.9 1.6 3.5 3.5 3.5s3.5-1.6 3.5-3.5-1.6-3.4-3.5-3.4zM182.4 1977.6c-3.4 0-6 2.8-6 6.1h1.6c0-2.5 2-4.5 4.5-4.5s4.5 2 4.5 4.5-2 4.5-4.5 4.5-4.5-2-4.5-4.5h-1.6c0 3.3 2.8 6.1 6.1 6 3.4 0 6-2.8 6-6.1 0-3.4-2.7-6-6.1-6zM324.2 2010.9c-2.9 0-5.2 2.4-5.2 5.3s2.4 5.2 5.3 5.2 5.2-2.4 5.2-5.3h-1.6c0 2-1.6 3.7-3.7 3.7-2 0-3.7-1.6-3.7-3.7 0-2 1.6-3.7 3.6-3.7s3.7 1.6 3.7 3.7h1.6c.1-2.9-2.3-5.2-5.2-5.2zM208.8 2111c-2.9 0-5.2 2.4-5.2 5.3s2.4 5.2 5.3 5.2 5.2-2.4 5.2-5.3h-1.6c0 2-1.6 3.7-3.7 3.7-2 0-3.7-1.6-3.7-3.7 0-2 1.6-3.7 3.7-3.7 2 0 3.7 1.6 3.7 3.7h1.6c-.1-2.9-2.5-5.2-5.3-5.2zM288.2 1913.8c-2.2 0-3.9 1.8-3.9 3.9 0 2.2 1.8 3.9 3.9 3.9 2.2 0 3.9-1.8 3.9-3.9 0-2.2-1.7-3.9-3.9-3.9zM191.8 1947.2c-2.1 0-3.9 1.8-3.9 3.9s1.8 3.9 3.9 3.9c2.2 0 3.9-1.8 3.9-3.9 0-2.2-1.8-3.9-3.9-3.9zM174.5 2012.1c-2.2 0-3.9 1.8-3.9 3.9 0 2.2 1.8 3.9 3.9 3.9 2.2 0 3.9-1.8 3.9-3.9 0-2.2-1.8-3.9-3.9-3.9zM286.2 2111.7c-2.2 0-3.9 1.8-3.9 3.9 0 2.2 1.8 3.9 3.9 3.9 2.2 0 3.9-1.8 3.9-3.9s-1.8-3.9-3.9-3.9zM226.1 2146c-1.2 0-2.1 1-2.1 2.2s1 2.2 2.2 2.1c1.2 0 2.1-1 2.1-2.2-.1-1.1-1-2.1-2.2-2.1zM318.7 1980.6c-1.3 0-2.3 1.1-2.3 2.3 0 1.3 1.1 2.3 2.4 2.3s2.3-1.1 2.3-2.4c0-1.2-1.1-2.2-2.4-2.2zM206.8 1501.1c-2.2 0-3.9 1.8-3.9 3.9 0 2.2 1.8 3.9 3.9 3.9 2.2 0 3.9-1.8 3.9-3.9.1-2.1-1.7-3.9-3.9-3.9zM334.6 1593.6c-2.2 0-3.9 1.8-3.9 3.9 0 2.2 1.8 3.9 3.9 3.9 2.2 0 3.9-1.8 3.9-3.9.1-2.1-1.7-3.9-3.9-3.9zM197.4 1515.9c-2.2 0-3.9 1.8-3.9 3.9 0 2.2 1.8 3.9 3.9 3.9 2.2 0 3.9-1.8 3.9-3.9s-1.7-3.9-3.9-3.9zM177.8 1731.7c-2.2 0-3.9 1.8-3.9 3.9 0 2.2 1.8 3.9 3.9 3.9 2.2 0 3.9-1.8 3.9-3.9 0-2.2-1.8-3.9-3.9-3.9zM168.1 1711c-4.3 0-7.8 3.5-7.8 7.8s3.5 7.8 7.8 7.8 7.8-3.5 7.8-7.8c0-4.4-3.5-7.8-7.8-7.8zM302.8 1892c-4.3 0-7.8 3.5-7.8 7.8s3.5 7.8 7.8 7.8 7.8-3.5 7.8-7.8-3.5-7.8-7.8-7.8zM289.7 1770.1c-2.2 0-3.9 1.8-3.9 3.9 0 2.2 1.8 3.9 3.9 3.9 2.2 0 3.9-1.8 3.9-3.9 0-2.2-1.7-3.9-3.9-3.9zM308.6 1743.6c-2.2 0-3.9 1.8-3.9 3.9 0 2.2 1.8 3.9 3.9 3.9 2.2 0 3.9-1.8 3.9-3.9 0-2.2-1.7-3.9-3.9-3.9zM232.5 1843.1c-2.2 0-3.9 1.8-3.9 3.9 0 2.2 1.8 3.9 3.9 3.9 2.2 0 3.9-1.8 3.9-3.9s-1.8-3.9-3.9-3.9zM166.7 1948.6c-2.2 0-3.9 1.8-3.9 3.9 0 2.2 1.8 3.9 3.9 3.9 2.2 0 3.9-1.8 3.9-3.9 0-2.1-1.8-3.9-3.9-3.9zM157.4 1981.3c-2.2 0-3.9 1.8-3.9 3.9 0 2.2 1.8 3.9 3.9 3.9 2.2 0 3.9-1.8 3.9-3.9.1-2.2-1.7-3.9-3.9-3.9zM152.4 2007.3c-2.2 0-3.9 1.8-3.9 3.9 0 2.2 1.8 3.9 3.9 3.9 2.2 0 3.9-1.8 3.9-3.9 0-2.2-1.8-3.9-3.9-3.9zM327.5 2081.8c-2.2 0-3.9 1.8-3.9 3.9 0 2.2 1.8 3.9 3.9 3.9 2.2 0 3.9-1.8 3.9-3.9.1-2.2-1.7-4-3.9-3.9zM302.9 2127.7c-2.2 0-3.9 1.8-3.9 3.9 0 2.2 1.8 3.9 3.9 3.9 2.2 0 3.9-1.8 3.9-3.9s-1.7-3.9-3.9-3.9zM280.5 1136.5c0 2.4 2 4.3 4.4 4.3s4.3-2 4.3-4.3c0-2.4-2-4.3-4.4-4.3-2.4-.1-4.3 1.9-4.3 4.3zM298.4 1379.3c-2.2 0-3.9 1.8-3.9 3.9 0 2.2 1.8 3.9 3.9 3.9 2.2 0 3.9-1.8 3.9-3.9.1-2.2-1.7-4-3.9-3.9zM148.5 1273.6c-2.2 0-3.9 1.8-3.9 3.9 0 2.2 1.8 3.9 3.9 3.9 2.2 0 3.9-1.8 3.9-3.9s-1.8-3.9-3.9-3.9zM216.3 1490.2c-2.2 0-3.9 1.8-3.9 3.9 0 2.2 1.8 3.9 3.9 3.9 2.2 0 3.9-1.8 3.9-3.9s-1.7-3.9-3.9-3.9zM257.1 1465.8c-2.2 0-3.9 1.8-3.9 3.9 0 2.2 1.8 3.9 3.9 3.9 2.2 0 3.9-1.8 3.9-3.9 0-2.2-1.7-4-3.9-3.9zM173.2 1558.4c-2.2 0-3.9 1.8-3.9 3.9 0 2.2 1.8 3.9 3.9 3.9 2.2 0 3.9-1.8 3.9-3.9s-1.7-3.9-3.9-3.9zM159.9 1690.2c-2.2 0-3.9 1.8-3.9 3.9 0 2.2 1.8 3.9 3.9 3.9 2.2 0 3.9-1.8 3.9-3.9 0-2.2-1.7-3.9-3.9-3.9zM317.2 1730.5c-2.2 0-3.9 1.8-3.9 3.9 0 2.2 1.8 3.9 3.9 3.9 2.2 0 3.9-1.8 3.9-3.9s-1.7-3.9-3.9-3.9zM300.5 1756.2c-2.2 0-3.9 1.8-3.9 3.9 0 2.2 1.8 3.9 3.9 3.9 2.2 0 3.9-1.8 3.9-3.9 0-2.2-1.8-4-3.9-3.9zM202.1 1883.1c-2.2 0-3.9 1.8-3.9 3.9 0 2.2 1.8 3.9 3.9 3.9 2.2 0 3.9-1.8 3.9-3.9.1-2.1-1.7-3.9-3.9-3.9zM154.1 1995.1c-2.2 0-3.9 1.8-3.9 3.9 0 2.2 1.8 3.9 3.9 3.9 2.2 0 3.9-1.8 3.9-3.9s-1.8-3.9-3.9-3.9zM152.4 2018.6c-2.2 0-3.9 1.8-3.9 3.9 0 2.2 1.8 3.9 3.9 3.9 2.1 0 3.9-1.8 3.9-3.9.1-2.2-1.7-4-3.9-3.9zM311.5 2114.7c-2.2 0-3.9 1.8-3.9 3.9 0 2.2 1.8 3.9 3.9 3.9 2.2 0 3.9-1.8 3.9-3.9 0-2.2-1.7-3.9-3.9-3.9zM292.6 2139.5c-2.2 0-3.9 1.8-3.9 3.9 0 2.2 1.8 3.9 3.9 3.9 2.2 0 3.9-1.8 3.9-3.9 0-2.2-1.8-3.9-3.9-3.9zM323.2 1199c-2.2 0-3.9 1.8-3.9 3.9 0 2.2 1.8 3.9 3.9 3.9 2.2 0 3.9-1.8 3.9-3.9.1-2.2-1.7-3.9-3.9-3.9zM316 1346.8c-4.8 0-8.6 3.9-8.6 8.7 0 4.8 3.9 8.6 8.7 8.6 4.8 0 8.6-3.9 8.6-8.7s-3.9-8.6-8.7-8.6zM307.9 1367.1c-2.2 0-3.9 1.8-3.9 3.9 0 2.2 1.8 3.9 3.9 3.9 2.2 0 3.9-1.8 3.9-3.9 0-2.2-1.7-3.9-3.9-3.9zM329.9 1327.4c-2.1 0-3.9 1.8-3.9 3.9 0 2.2 1.8 3.9 3.9 3.9 2.2 0 3.9-1.8 3.9-3.9s-1.7-3.9-3.9-3.9zM155.2 1231.1c-2.2 0-3.9 1.8-3.9 3.9 0 2.2 1.8 3.9 3.9 3.9 2.2 0 3.9-1.8 3.9-3.9s-1.8-3.9-3.9-3.9zM159.6 1211c-2.2 0-3.9 1.8-3.9 3.9s1.8 3.9 3.9 3.9c2.2 0 3.9-1.8 3.9-3.9 0-2.2-1.7-3.9-3.9-3.9zM150.9 1251.1c-2.2 0-3.9 1.8-3.9 3.9 0 2.2 1.8 3.9 3.9 3.9 2.2 0 3.9-1.8 3.9-3.9.1-2.2-1.7-3.9-3.9-3.9zM150.3 1289.2c-2.2 0-3.9 1.8-3.9 3.9 0 2.2 1.8 3.9 3.9 3.9 2.2 0 3.9-1.8 3.9-3.9 0-2.2-1.8-3.9-3.9-3.9zM301.1 1152.9c-4.8 0-8.6 3.9-8.6 8.7 0 4.8 3.9 8.7 8.7 8.6 4.8 0 8.6-3.9 8.6-8.7s-3.9-8.7-8.7-8.6z" />
        <g class="st3">
          <path class="st1"
                d="M176.9 1290.8C122 1366.1 87.1 1446 87.5 1524c.1 27.2 4.6 54.2 14 80.6 38.3 107.5 139.6 206.3 217.9 311.3 55.5 74.4 90.9 153.4 91.3 230.4.1 26.9-4 53.6-13 79.8-31.6 91.7-109.6 178.3-180 268.1h3.9c69.9-89 147.3-175.1 179-267 9.1-26.6 13.3-53.6 13.1-80.8-.4-78.1-36.2-157.5-91.9-232.3-78.5-105.2-179.5-204-217.4-310.5-9.3-26.1-13.7-52.7-13.8-79.6-.4-77.1 34.2-156.4 88.8-231.4 39.7-54.5 85.5-107.4 125.7-160.6h-3.9c-39.7 52.5-84.9 104.9-124.3 158.8z" />
          <path class="st1"
                d="m304.3 1698.4-114.9.6v2.6l114.9-.6v-2.6zM273 1739.4l-51.9.3v2.6l51.9-.3v-2.6zM342.9 1643l-185.4 1v2.6l185.4-1v-2.6zM354 1587.8l-217.4 1.2v2.6l217.4-1.2v-2.6zM375.9 1532.5l-244.2 1.3v2.6l244.2-1.3v-2.6zM370 1477.4l-244.9 1.3v2.6L370 1480v-2.6zM340.5 1422.4l-183.5 1v2.6l183.5-1v-2.6zM310.4 1367.4l-122.8.7v2.6l122.8-.7v-2.6zM288.7 1312.4l-75.2.4v2.6l75.2-.4v-2.6z" />
          <path class="st1"
                d="M309.7 1691.8c-4.3 0-7.8 3.6-7.8 7.9s3.6 7.8 7.9 7.8c4.4 0 7.9-3.6 7.8-7.9H315c0 2.9-2.3 5.3-5.2 5.3-2.9 0-5.2-2.3-5.3-5.2 0-2.9 2.3-5.3 5.2-5.3 2.9 0 5.3 2.3 5.3 5.2h2.6c.1-4.3-3.5-7.8-7.9-7.8zM217.1 1734.9c-3.4 0-6.1 2.8-6.1 6.2 0 3.4 2.8 6.1 6.2 6.1s6.1-2.8 6.1-6.2h-2.6c0 2-1.6 3.5-3.5 3.6-1.9 0-3.5-1.6-3.5-3.5s1.6-3.5 3.5-3.6c2 0 3.5 1.6 3.6 3.5h2.6c-.1-3.4-2.8-6.2-6.3-6.1zM153.7 1639.8c-3.3 0-5.9 2.7-5.9 5.9s2.7 5.9 5.9 5.9c3.3 0 5.9-2.7 5.9-5.9H157c0 1.8-1.5 3.3-3.3 3.3s-3.3-1.5-3.3-3.3 1.5-3.3 3.3-3.3 3.3 1.5 3.3 3.3h2.6c0-3.3-2.6-6-5.9-5.9zM153.7 1419.2c-3.3 0-5.9 2.7-5.9 5.9 0 3.3 2.7 5.9 5.9 5.9 3.3 0 5.9-2.7 5.9-5.9H157c0 1.8-1.4 3.3-3.3 3.3-1.8 0-3.3-1.5-3.3-3.3s1.5-3.3 3.3-3.3 3.3 1.5 3.3 3.3h2.6c0-3.3-2.7-6-5.9-5.9zM209.5 1309.2c-3.3 0-5.9 2.7-5.9 5.9 0 3.3 2.7 5.9 5.9 5.9 3.3 0 5.9-2.7 5.9-5.9h-2.6c0 1.8-1.4 3.3-3.3 3.3-1.8 0-3.3-1.5-3.3-3.3s1.5-3.3 3.3-3.3 3.3 1.5 3.3 3.3h2.6c.1-3.2-2.6-5.9-5.9-5.9zM362.2 1579.6c-5.6 0-10.2 4.6-10.1 10.2 0 5.6 4.6 10.1 10.2 10.1s10.1-4.6 10.1-10.2h-2.6c0 4.2-3.3 7.6-7.5 7.6s-7.6-3.3-7.6-7.5 3.3-7.6 7.5-7.6 7.6 3.3 7.6 7.5h2.6c-.1-5.6-4.6-10.2-10.2-10.1zM124.2 1526.3c-4.8 0-8.8 4-8.7 8.8h2.6c0-3.4 2.7-6.2 6.1-6.2s6.2 2.7 6.2 6.1-2.7 6.2-6.1 6.2-6.2-2.7-6.2-6.1h-2.6c0 4.8 4 8.8 8.8 8.7 4.8 0 8.8-4 8.7-8.8 0-4.8-3.9-8.7-8.8-8.7zM318 1358.5c-4.8 0-8.7 4-8.7 8.8h2.6c0-3.4 2.7-6.2 6.1-6.2s6.2 2.7 6.2 6.1-2.7 6.2-6.1 6.2-6.2-2.7-6.2-6.1h-2.6c0 4.8 4 8.8 8.8 8.7 4.9 0 8.8-4 8.7-8.8-.1-4.8-4-8.7-8.8-8.7zM376 1470.5c-4.8 0-8.8 4-8.7 8.8h2.6c0-3.4 2.7-6.2 6.1-6.2s6.2 2.7 6.2 6.1-2.7 6.2-6.1 6.2-6.2-2.7-6.2-6.1h-2.6c0 4.8 4 8.8 8.8 8.7 4.9 0 8.8-4 8.7-8.8 0-4.8-3.9-8.7-8.8-8.7zM184.8 1706.9c3.6 0 6.6-3 6.5-6.6 0-3.6-3-6.5-6.6-6.5s-6.6 3-6.5 6.6c0 3.6 3 6.5 6.6 6.5zM274.5 1735.9c-2.1 0-3.8 1.7-3.8 3.8 0 2.1 1.7 3.8 3.8 3.8 2.1 0 3.8-1.7 3.8-3.8s-1.7-3.8-3.8-3.8zM126.1 1473.8c-3.6 0-6.5 3-6.5 6.6s3 6.6 6.6 6.5c3.6 0 6.5-3 6.5-6.6-.1-3.6-3-6.5-6.6-6.5zM346.5 1637.7c-3.6 0-6.6 3-6.5 6.6 0 3.6 3 6.5 6.6 6.5s6.5-3 6.5-6.6c-.1-3.6-3-6.5-6.6-6.5zM375.5 1528.8c-3.6 0-6.6 3-6.5 6.6 0 3.6 3 6.5 6.6 6.5s6.5-3 6.5-6.6-3-6.5-6.6-6.5zM188.2 1361.8c-3.6 0-6.6 3-6.5 6.6 0 3.6 3 6.6 6.6 6.5 3.6 0 6.5-3 6.5-6.6-.1-3.6-3-6.5-6.6-6.5zM289 1310c-2 0-3.6 1.7-3.6 3.7s1.6 3.6 3.6 3.6 3.6-1.6 3.6-3.6-1.6-3.7-3.6-3.7zM345 1417.1c-3.6 0-6.6 3-6.5 6.6 0 3.6 3 6.6 6.6 6.5s6.5-3 6.5-6.6-2.9-6.6-6.6-6.5zM133.6 1587c-2.2 0-3.9 1.8-3.9 4s1.8 3.9 4 3.9 3.9-1.8 3.9-4c-.1-2.2-1.9-3.9-4-3.9zM314.6 1976.6l-114.9.6v2.6l114.9-.6v-2.6zM282.9 1935.9l-51.9.3v2.6l51.9-.3v-2.6zM346.5 2031.6l-185.4 1v2.6l185.4-1v-2.6zM367.4 2086.6l-217.4 1.2v2.6l217.4-1.2v-2.6zM372.3 2141.8l-244.2 1.3v2.6l244.2-1.3v-2.6z" />
          <path class="st1"
                d="M194.1 1970.7c-4.3 0-7.9 3.6-7.8 7.9h2.6c0-2.9 2.3-5.3 5.2-5.3s5.3 2.3 5.3 5.2c0 2.9-2.3 5.3-5.2 5.3s-5.3-2.3-5.3-5.2h-2.6c0 4.3 3.6 7.8 7.9 7.8s7.9-3.6 7.8-7.9c-.1-4.3-3.6-7.8-7.9-7.8zM286.7 1931.1c-3.4 0-6.1 2.8-6.1 6.2h2.6c0-1.9 1.6-3.5 3.5-3.6 2 0 3.5 1.6 3.6 3.5 0 1.9-1.6 3.5-3.5 3.5s-3.5-1.5-3.6-3.5h-2.6c0 3.4 2.8 6.1 6.2 6.1 3.4 0 6.1-2.8 6.1-6.2-.1-3.3-2.9-6-6.2-6zM350.1 2026.7c-3.3 0-5.9 2.7-5.9 5.9h2.6c0-1.8 1.5-3.3 3.3-3.3s3.3 1.5 3.3 3.3-1.5 3.3-3.3 3.3-3.3-1.4-3.3-3.3h-2.5c0 3.3 2.7 5.9 5.9 5.9 3.3 0 5.9-2.7 5.9-5.9-.1-3.3-2.7-5.9-6-5.9zM141.6 2078.4c-5.6 0-10.1 4.6-10.1 10.2h2.6c0-4.1 3.3-7.6 7.5-7.6s7.6 3.3 7.6 7.5-3.3 7.6-7.5 7.6-7.6-3.3-7.6-7.5h-2.6c0 5.6 4.6 10.1 10.2 10.1s10.2-4.6 10.1-10.2c0-5.6-4.6-10.2-10.2-10.1zM379.6 2134.4c-4.8 0-8.8 4-8.7 8.8 0 4.9 4 8.8 8.8 8.7 4.9 0 8.8-4 8.7-8.8h-2.6c0 3.4-2.7 6.2-6.1 6.2s-6.2-2.7-6.2-6.1c0-3.4 2.7-6.2 6.1-6.2s6.2 2.7 6.2 6.1h2.6c0-4.9-4-8.8-8.8-8.7zM319.1 1971.4c-3.6 0-6.5 3-6.5 6.6s3 6.5 6.6 6.5 6.5-3 6.5-6.6-2.9-6.5-6.6-6.5zM229.3 1934.8c-2.1 0-3.8 1.7-3.8 3.8s1.7 3.8 3.8 3.8 3.8-1.7 3.8-3.8c0-2.2-1.7-3.9-3.8-3.8zM157.3 2027.4c-3.6 0-6.5 3-6.5 6.6 0 3.6 3 6.5 6.6 6.5s6.6-3 6.5-6.6c-.1-3.6-2.9-6.5-6.6-6.5zM128.3 2136.3c-3.6 0-6.6 3-6.5 6.6 0 3.6 3 6.5 6.6 6.5 3.6 0 6.5-3 6.5-6.6s-3-6.5-6.6-6.5zM370.3 2083.4c-2.2 0-3.9 1.8-3.9 3.9 0 2.2 1.8 3.9 4 3.9s3.9-1.8 3.9-4-1.9-3.8-4-3.8zM182.7 1292.3c3.6 0 6.6-3 6.5-6.6 0-3.6-3-6.5-6.6-6.5s-6.6 3-6.5 6.6c0 3.6 3 6.5 6.6 6.5zM166.8 1303.9c-3.6 0-6.5 3-6.5 6.6s3 6.6 6.6 6.5c3.6 0 6.5-3 6.5-6.6-.1-3.6-3-6.5-6.6-6.5zM133.8 1665.9c-3.6 0-6.5 3-6.5 6.6s3 6.6 6.6 6.5c3.6 0 6.6-3 6.5-6.6 0-3.6-2.9-6.5-6.6-6.5zM117.7 1631.1c-7.2 0-13 5.9-13 13.1s5.9 13 13.2 13c7.2 0 13-5.9 13-13.2-.1-7.1-6-12.9-13.2-12.9zM331.4 1918.5c-7.2 0-13 5.9-13 13.2 0 7.2 5.9 13 13.2 13 7.2 0 13-5.9 13-13.2-.1-7.3-6-13.1-13.2-13zM321.6 1730.3c-3.6 0-6.5 3-6.5 6.6s3 6.6 6.6 6.5c3.6 0 6.5-3 6.5-6.6s-2.9-6.5-6.6-6.5zM353.4 1685.9c-3.6 0-6.5 3-6.5 6.6s3 6.5 6.6 6.5 6.5-3 6.5-6.6-3-6.6-6.6-6.5zM225.8 1866c3.6 0 6.6-3 6.5-6.6 0-3.6-3-6.5-6.6-6.5s-6.6 3-6.5 6.6c0 3.6 2.9 6.5 6.6 6.5zM103.3 2064.2c-3.6 0-6.5 3-6.5 6.6s3 6.6 6.6 6.5c3.6 0 6.5-3 6.5-6.6 0-3.5-3-6.5-6.6-6.5zM99.8 2084.6c-3.6 0-6.5 3-6.5 6.6s3 6.5 6.6 6.5 6.5-3 6.5-6.6c-.1-3.6-3-6.5-6.6-6.5zM92.8 2141.2c3.5-.8 5.7-4.4 4.8-7.9s-4.4-5.7-7.9-4.8-5.7 4.4-4.8 7.9c.8 3.5 4.4 5.7 7.9 4.8zM199.7 1273.9c3.6-.6 6-4 5.4-7.6s-4-6-7.6-5.4-6 4-5.4 7.6c.7 3.5 4 6 7.6 5.4zM150.2 1328.7c-3.6 0-6.5 3-6.5 6.6s3 6.5 6.6 6.5 6.5-3 6.5-6.6c-.1-3.6-3-6.5-6.6-6.5zM110.3 1610.9c-3.6 0-6.5 3-6.5 6.6s3 6.6 6.6 6.5c3.6 0 6.6-3 6.5-6.6 0-3.7-3-6.6-6.6-6.5zM367.8 1664c-3.6 0-6.5 3-6.5 6.6s3 6.5 6.6 6.5 6.5-3 6.5-6.6c-.1-3.6-3-6.6-6.6-6.5zM339.7 1720.1c3.6 0 6.6-2.9 6.6-6.6s-2.9-6.6-6.6-6.6c-3.6 0-6.6 2.9-6.6 6.6s2.9 6.6 6.6 6.6zM211.9 1868.9c-3.6 0-6.6 3-6.5 6.6 0 3.6 3 6.6 6.6 6.5 3.6 0 6.5-3 6.5-6.6s-2.9-6.5-6.6-6.5zM100.7 2114.6c0-3.6-2.9-6.6-6.5-6.6s-6.6 2.9-6.6 6.5 2.9 6.6 6.5 6.6c3.6.1 6.6-2.8 6.6-6.5zM91.4 2147.1c-3.6 0-6.5 3-6.5 6.6s3 6.6 6.6 6.5c3.6 0 6.6-3 6.5-6.6 0-3.6-3-6.5-6.6-6.5z" />
        </g>
        <path class="st1"
              d="M145.5 772.4c.1 16.2 2.7 32.3 8.4 48.1 22.9 64 83.2 123 129.9 185.6 33.1 44.4 54.2 91.4 54.4 137.3.1 16-2.4 32-7.7 47.6-3.5 10.1-7.9 20.1-13.1 30 .6.2 1.2.4 1.7.6 5.1-9.9 9.6-19.9 13.1-30 5.4-15.8 7.9-32 7.8-48.2-.3-46.5-21.6-93.9-54.8-138.4-46.8-62.7-107-121.6-129.6-185.1-5.5-15.6-8.1-31.4-8.2-47.5-.1-22.1 4.6-44.5 13.2-66.9-.6-.2-1.2-.4-1.7-.7-8.8 22.6-13.6 45.2-13.4 67.6zM326.4 350.6c4.9 16.3 7.6 32.6 7.7 48.8.1 16-2.4 31.9-7.7 47.5-21.9 63.7-81.5 123.2-127.6 186.5-2.2 2.9-4.2 5.9-6.3 8.9.5.3 1 .6 1.5 1 2-2.9 4.1-5.9 6.2-8.8 46-63.1 105.7-122.7 127.9-187 5.4-15.8 7.9-31.9 7.8-48.2-.1-16.5-2.9-33-7.8-49.5-.5.3-1.1.6-1.7.8zM147.2-15.9c-3.8 14.8-5.9 29.5-5.8 44.2.1 16.2 2.7 32.3 8.4 48.1C168 127.5 210 175.3 250 224.3c.3-.6.6-1.1 1-1.7-39.8-48.9-81.5-96.4-99.5-146.8-5.5-15.6-8.2-31.5-8.3-47.5-.1-14.6 2-29.4 5.9-44.2h-1.9zM154.2 1099.5c-.2-.1-.4-.3-.6-.5-4 15.2-6.2 30.4-6.1 45.4.1 16.2 2.7 32.3 8.4 48.1 10 28 27.1 54.9 47.1 81.7h2.3c-20.3-27-37.7-54.2-47.7-82.3-5.5-15.6-8.2-31.4-8.3-47.5-.1-14.7 2-29.6 5.9-44.5-.3-.2-.7-.3-1-.4z" />
        <path class="st1"
              d="M320.9 837.4c-26 56.8-78.5 110.9-120.1 168-4.3 5.9-8.3 11.8-12.2 17.7.6.2 1.2.5 1.7.7 3.8-5.8 7.8-11.6 12-17.4 41.3-56.7 93.6-110.5 119.9-167.4-.5-.4-1-1-1.3-1.6zM151.5 447.5c.1.3.2.7.3 1 22.9 64.1 83.2 123 129.9 185.6 5.3 7.2 10.3 14.4 15 21.7.3-.6.7-1.1 1.2-1.6-4.6-7.1-9.5-14.2-14.7-21.2-46.8-62.7-107-121.6-129.6-185.1-.1-.3-.1-.5-.2-.8-.7.1-1.3.3-1.9.4zM321.5 82.3c-23.8 60.9-80.4 118.3-124.8 179-12.7 17.5-23.6 35.4-32.2 53.5.6.2 1.1.5 1.7.8 8.5-18 19.4-35.8 32.1-53.2 43.7-60 99.8-116.8 124.3-177.5-.5-.7-.8-1.6-1.1-2.6zM313.1 59.8l-146 .8v1.6l146-.8v-1.6zM294.1 92.8l-109.4.6V95l109.4-.6v-1.6zM260.4 158.7l-44.8.2v1.6l44.8-.2v-1.6z" />
        <path class="st1"
              d="M296 89.8c-1.9 0-3.5 1.6-3.5 3.5h1.6c0-1.1.9-2 2-2s2 .9 2 1.9c0 1.1-.9 2-1.9 2-1.1 0-2-.9-2-1.9h-1.6c0 2 1.6 3.5 3.5 3.5s3.5-1.6 3.5-3.5-1.6-3.5-3.6-3.5zM262.7 155.4c-2 0-3.5 1.6-3.5 3.5h1.6c0-1.1.9-2 1.9-2 1.1 0 2 .9 2 1.9 0 1.1-.9 2-1.9 2-1.1 0-2-.9-2-1.9h-1.6c0 1.9 1.6 3.5 3.5 3.5s3.5-1.6 3.5-3.5c.1-2-1.5-3.5-3.5-3.5zM163.5 55.8c-2.9 0-5.2 2.4-5.2 5.3s2.4 5.2 5.3 5.2 5.2-2.4 5.2-5.3h-1.6c0 2-1.6 3.7-3.7 3.7-2 0-3.7-1.6-3.7-3.7 0-2 1.6-3.7 3.7-3.7 2 0 3.7 1.6 3.7 3.7h1.6c-.1-2.9-2.4-5.2-5.3-5.2zM312.5 56.5c-2.2 0-3.9 1.8-3.9 3.9 0 2.2 1.8 3.9 3.9 3.9 2.2 0 3.9-1.8 3.9-3.9 0-2.2-1.7-3.9-3.9-3.9zM215.4 157.6c-1.2 0-2.1 1-2.1 2.2s1 2.1 2.2 2.1 2.1-1 2.1-2.2c-.1-1.1-1-2.1-2.2-2.1zM182 90.3c-2.2 0-3.9 1.8-3.9 3.9 0 2.2 1.8 3.9 3.9 3.9 2.2 0 3.9-1.8 3.9-3.9 0-2.2-1.8-3.9-3.9-3.9zM254 528.7l-30.9.2v1.6l30.9-.2v-1.6zM295.7 471.3l-110.5.6v1.6l110.5-.6v-1.6zM315.4 405.4l-145.6.8v1.6l145.6-.8v-1.6zM294.3 339.8l-109.4.6v1.6l109.4-.6v-1.6zM276.3 307l-73.2.4v1.6l73.2-.4V307zM263.4 274.2l-44.8.2v1.6l44.8-.2v-1.6z" />
        <path class="st1"
              d="M220.7 526.1c-2 0-3.6 1.7-3.6 3.7s1.6 3.7 3.7 3.7c2 0 3.7-1.7 3.7-3.7H222.8c0 1.2-.9 2.1-2.1 2.1s-2.1-.9-2.1-2.1.9-2.1 2.1-2.1 2.1.9 2.1 2.1h1.6c0-2.1-1.7-3.8-3.7-3.7zM182.9 469.4c-1.9 0-3.5 1.6-3.5 3.5s1.6 3.5 3.5 3.5 3.5-1.6 3.5-3.5h-1.6c0 1.1-.9 2-1.9 2-1.1 0-2-.9-2-1.9 0-1.1.9-2 1.9-2 1.1 0 2 .9 2 2h1.6c0-2.1-1.6-3.6-3.5-3.6zM182.9 337.9c-1.9 0-3.5 1.6-3.5 3.5s1.6 3.5 3.5 3.5 3.5-1.6 3.5-3.5h-1.6c0 1.1-.9 2-1.9 2-1.1 0-2-.9-2-1.9 0-1.1.9-2 2-2s2 .9 2 2h1.6c-.1-2.1-1.7-3.6-3.6-3.6zM216.2 272.3c-1.9 0-3.5 1.6-3.5 3.5s1.6 3.5 3.5 3.5 3.5-1.6 3.5-3.5h-1.6c0 1.1-.9 2-1.9 2-1.1 0-2-.9-2-2s.9-2 1.9-2c1.1 0 2 .9 2 1.9h1.6c0-1.8-1.6-3.4-3.5-3.4zM280.8 301.7c-2.9 0-5.2 2.4-5.2 5.3h1.6c0-2 1.6-3.7 3.6-3.7s3.7 1.6 3.7 3.7c0 2-1.6 3.7-3.7 3.7s-3.7-1.6-3.7-3.7h-1.5c0 2.9 2.4 5.2 5.3 5.2s5.2-2.4 5.2-5.3-2.4-5.2-5.3-5.2zM254.9 526.7c-1.2 0-2.2 1-2.2 2.3 0 1.2 1 2.2 2.3 2.2 1.2 0 2.2-1 2.2-2.3 0-1.2-1-2.2-2.3-2.2zM297.8 468.2c-2.2 0-3.9 1.8-3.9 3.9 0 2.2 1.8 3.9 3.9 3.9 2.2 0 3.9-1.8 3.9-3.9.1-2.2-1.7-4-3.9-3.9zM315.1 403.2c-2.2 0-3.9 1.8-3.9 3.9 0 2.2 1.8 3.9 3.9 3.9 2.2 0 3.9-1.8 3.9-3.9.1-2.1-1.7-3.9-3.9-3.9zM203.4 303.7c-2.2 0-3.9 1.8-3.9 3.9 0 2.2 1.8 3.9 3.9 3.9 2.2 0 3.9-1.8 3.9-3.9.1-2.2-1.7-4-3.9-3.9zM263.6 272.8c-1.2 0-2.1 1-2.1 2.2s1 2.2 2.2 2.1c1.2 0 2.1-1 2.1-2.2-.1-1.1-1.1-2.1-2.2-2.1zM297 336.6c-2.2 0-3.9 1.8-3.9 3.9 0 2.2 1.8 3.9 3.9 3.9 2.2 0 3.9-1.8 3.9-3.9s-1.8-3.9-3.9-3.9zM170.4 402.8c-2.2 0-3.9 1.8-3.9 3.9 0 2.2 1.8 3.9 3.9 3.9s3.9-1.8 3.9-3.9-1.7-3.9-3.9-3.9zM278.8 670.2l-68.5.4v1.6l68.5-.4v-1.6zM297.8 702.9l-110.5.6v1.6l110.5-.6v-1.6zM310.3 735.7l-129.6.7v1.6l129.6-.7v-1.6zM313.2 768.6l-145.6.8v1.6l145.6-.8v-1.6zM279.9 867.4l-73.2.4v1.6l73.2-.4v-1.6zM264.4 900.4l-44.8.2v1.6l44.8-.2v-1.6z" />
        <path class="st1"
              d="M207 666.7c-2.6 0-4.7 2.1-4.7 4.7h1.6c0-1.7 1.4-3.1 3.1-3.2 1.7 0 3.1 1.4 3.2 3.1 0 1.7-1.4 3.1-3.1 3.1s-3.1-1.4-3.2-3.1h-1.6c0 2.6 2.1 4.7 4.7 4.7s4.7-2.1 4.7-4.7-2.1-4.7-4.7-4.6zM300 700c-1.9 0-3.5 1.6-3.5 3.5h1.6c0-1.1.9-2 2-2s2 .9 2 2-.9 2-1.9 2c-1.1 0-2-.9-2-1.9h-1.6c0 1.9 1.6 3.5 3.5 3.5s3.5-1.6 3.5-3.5c-.1-2-1.7-3.6-3.6-3.6zM266.7 897.1c-2 0-3.5 1.6-3.5 3.5h1.6c0-1.1.9-2 1.9-2 1.1 0 2 .9 2 1.9 0 1.1-.9 2-1.9 2-1.1 0-2-.9-2-2h-1.6c0 1.9 1.6 3.5 3.5 3.5s3.5-1.6 3.5-3.5-1.5-3.5-3.5-3.4zM175.7 730.8c-3.4 0-6 2.8-6 6.1h1.6c0-2.5 2-4.5 4.5-4.5s4.5 2 4.5 4.5-2 4.5-4.5 4.5-4.5-2-4.5-4.5h-1.6c0 3.4 2.8 6 6.1 6 3.4 0 6-2.8 6-6.1s-2.7-6-6.1-6zM317.6 764.2c-2.9 0-5.2 2.4-5.2 5.3s2.4 5.2 5.3 5.2 5.2-2.4 5.2-5.3h-1.6c0 2-1.6 3.7-3.7 3.7-2 0-3.7-1.6-3.7-3.7 0-2 1.6-3.7 3.6-3.7s3.7 1.6 3.7 3.7h1.6c0-2.9-2.3-5.2-5.2-5.2zM202.1 864.2c-2.9 0-5.2 2.4-5.2 5.3s2.4 5.2 5.3 5.2 5.2-2.4 5.2-5.3h-1.6c0 2-1.6 3.7-3.7 3.7-2 0-3.7-1.6-3.7-3.7 0-2 1.6-3.7 3.7-3.7 2 0 3.7 1.6 3.7 3.7h1.6c-.1-2.8-2.5-5.2-5.3-5.2zM281.5 667c-2.2 0-3.9 1.8-3.9 3.9 0 2.2 1.8 3.9 3.9 3.9s3.9-1.8 3.9-3.9-1.7-3.9-3.9-3.9zM185.1 700.4c-2.2 0-3.9 1.8-3.9 3.9 0 2.2 1.8 3.9 3.9 3.9 2.2 0 3.9-1.8 3.9-3.9s-1.8-3.9-3.9-3.9zM167.8 765.3c-2.2 0-3.9 1.8-3.9 3.9 0 2.2 1.8 3.9 3.9 3.9 2.2 0 3.9-1.8 3.9-3.9s-1.8-3.9-3.9-3.9zM279.5 864.9c-2.2 0-3.9 1.8-3.9 3.9 0 2.2 1.8 3.9 3.9 3.9 2.2 0 3.9-1.8 3.9-3.9s-1.8-3.9-3.9-3.9zM219.4 899.3c-1.2 0-2.1 1-2.1 2.2s1 2.2 2.2 2.1c1.2 0 2.1-1 2.1-2.2-.1-1.1-1-2.1-2.2-2.1zM312 733.8c-1.3 0-2.3 1.1-2.3 2.4 0 1.3 1.1 2.3 2.4 2.3s2.3-1.1 2.3-2.4c0-1.3-1.1-2.3-2.4-2.3zM276.7 1245.4l-68.5.4v1.6l68.5-.4v-1.6zM299.7 1212.4l-110.5.6v1.6l110.5-.6v-1.6zM319.4 1146.5l-145.6.8v1.6l145.6-.8v-1.6zM298.3 1080.9l-109.4.6v1.6l109.4-.6v-1.6zM267.4 1015.3l-44.8.2v1.5l44.8-.2v-1.5z" />
        <path class="st1"
              d="M186.9 1210.5c-2 0-3.5 1.6-3.5 3.5 0 2 1.6 3.5 3.5 3.5s3.5-1.6 3.5-3.5h-1.6c0 1.1-.9 1.9-1.9 2-1.1 0-2-.9-2-1.9 0-1.1.9-2 1.9-2 1.1 0 2 .9 2 2h1.6c0-2.1-1.6-3.6-3.5-3.6zM186.9 1079c-1.9 0-3.5 1.6-3.5 3.5s1.6 3.5 3.5 3.5 3.5-1.6 3.5-3.5h-1.6c0 1.1-.9 2-1.9 2-1.1 0-2-.9-2-1.9 0-1.1.9-2 2-2s2 .9 2 2h1.6c-.1-2.1-1.7-3.6-3.6-3.6zM220.2 1013.4c-1.9 0-3.5 1.6-3.5 3.5 0 2 1.6 3.5 3.5 3.5s3.5-1.6 3.5-3.5h-1.6c0 1.1-.9 2-1.9 2-1.1 0-2-.9-2-2s.9-2 1.9-2c1.1 0 2 .9 2 2h1.6c0-1.9-1.6-3.5-3.5-3.5zM169.3 1142.9c-2.9 0-5.2 2.4-5.2 5.3h1.6c0-2 1.6-3.7 3.7-3.7 2 0 3.7 1.6 3.7 3.7 0 2-1.6 3.7-3.7 3.7-2 0-3.7-1.6-3.7-3.7h-1.6c0 2.9 2.4 5.2 5.3 5.2s5.2-2.4 5.2-5.3-2.4-5.3-5.3-5.2zM301.8 1209.3c-2.2 0-3.9 1.8-3.9 3.9 0 2.2 1.8 3.9 3.9 3.9 2.2 0 3.9-1.8 3.9-3.9 0-2.2-1.7-4-3.9-3.9zM319.1 1144.3c-2.2 0-3.9 1.8-3.9 3.9 0 2.2 1.8 3.9 3.9 3.9 2.2 0 3.9-1.8 3.9-3.9s-1.7-3.9-3.9-3.9zM267.5 1013.9c-1.2 0-2.1 1-2.1 2.2s1 2.1 2.2 2.1c1.2 0 2.2-1 2.1-2.2 0-1.2-1-2.1-2.2-2.1zM301 1077.7c-2.2 0-3.9 1.8-3.9 3.9 0 2.2 1.8 3.9 3.9 3.9 2.2 0 3.9-1.8 3.9-3.9 0-2.2-1.8-3.9-3.9-3.9zM200.1 254.4c-2.2 0-3.9 1.8-3.9 3.9 0 2.2 1.8 3.9 3.9 3.9 2.2 0 3.9-1.8 3.9-3.9.1-2.2-1.7-3.9-3.9-3.9zM327.9 346.9c-2.2 0-3.9 1.8-3.9 3.9 0 2.2 1.8 3.9 3.9 3.9 2.2 0 3.9-1.8 3.9-3.9.1-2.2-1.7-3.9-3.9-3.9zM190.7 269.2c-2.2 0-3.9 1.8-3.9 3.9 0 2.2 1.8 3.9 3.9 3.9 2.2 0 3.9-1.8 3.9-3.9 0-2.1-1.7-3.9-3.9-3.9zM171.1 485c-2.2 0-3.9 1.8-3.9 3.9 0 2.2 1.8 3.9 3.9 3.9 2.2 0 3.9-1.8 3.9-3.9 0-2.2-1.8-4-3.9-3.9zM161.4 464.2c-4.3 0-7.8 3.5-7.8 7.8s3.5 7.8 7.8 7.8 7.8-3.5 7.8-7.8-3.5-7.8-7.8-7.8zM296.1 645.3c-4.3 0-7.8 3.5-7.8 7.8s3.5 7.8 7.8 7.8 7.8-3.5 7.7-7.8c.1-4.3-3.4-7.8-7.7-7.8zM283 523.3c-2.2 0-3.9 1.8-3.9 3.9 0 2.2 1.8 3.9 3.9 3.9 2.2 0 3.9-1.8 3.9-3.9s-1.7-3.9-3.9-3.9zM301.9 496.8c-2.2 0-3.9 1.8-3.9 3.9 0 2.2 1.8 3.9 3.9 3.9 2.2 0 3.9-1.8 3.9-3.9s-1.7-3.9-3.9-3.9zM225.8 596.4c-2.2 0-3.9 1.8-3.9 3.9 0 2.2 1.8 3.9 3.9 3.9 2.2 0 3.9-1.8 3.9-3.9 0-2.2-1.8-3.9-3.9-3.9zM159.9 701.9c-2.2 0-3.9 1.8-3.9 3.9 0 2.2 1.8 3.9 3.9 3.9 2.2 0 3.9-1.8 3.9-3.9.1-2.2-1.7-3.9-3.9-3.9zM150.8 734.5c-2.2 0-3.9 1.8-3.9 3.9 0 2.2 1.8 3.9 3.9 3.9 2.2 0 3.9-1.8 3.9-3.9s-1.8-3.9-3.9-3.9zM145.7 760.6c-2.2 0-3.9 1.8-3.9 3.9 0 2.2 1.8 3.9 3.9 3.9 2.2 0 3.9-1.8 3.9-3.9 0-2.2-1.7-3.9-3.9-3.9zM320.8 835c-2.2 0-3.9 1.8-3.9 3.9 0 2.2 1.8 3.9 3.9 3.9 2.2 0 3.9-1.8 3.9-3.9.1-2.2-1.7-3.9-3.9-3.9zM173.3 1222.1c-2.2 0-3.9 1.8-3.9 3.9 0 2.2 1.8 3.9 3.9 3.9 2.2 0 3.9-1.8 3.9-3.9 0-2.2-1.8-3.9-3.9-3.9zM204.1 996.3c-2.2 0-3.9 1.8-3.9 3.9 0 2.2 1.8 3.9 3.9 3.9 2.2 0 3.9-1.8 3.9-3.9 0-2.2-1.7-3.9-3.9-3.9zM336.4 1103.9c-2.2 0-3.9 1.8-3.9 3.9 0 2.2 1.8 3.9 3.9 3.9 2.2 0 3.9-1.8 3.9-3.9 0-2.2-1.8-3.9-3.9-3.9zM338.2 1117.3c-2.2 0-3.9 1.8-3.9 3.9 0 2.2 1.8 3.9 3.9 3.9 2.2 0 3.9-1.8 3.9-3.9s-1.8-3.9-3.9-3.9zM340.1 1146.3c-2.2 0-3.9 1.8-3.9 3.9s1.8 3.9 3.9 3.9c2.2 0 3.9-1.8 3.9-3.9 0-2.2-1.8-4-3.9-3.9zM292.6 1013.6c-2.2 0-3.9 1.8-3.9 3.9 0 2.2 1.8 3.9 3.9 3.9 2.2 0 3.9-1.8 3.9-3.9 0-2.2-1.8-3.9-3.9-3.9zM153.9 1096.7c-2.2 0-3.9 1.8-3.9 3.9 0 2.2 1.8 3.9 3.9 3.9 2.2 0 3.9-1.8 3.9-3.9.1-2.1-1.7-3.9-3.9-3.9zM296.2 881c-2.2 0-3.9 1.8-3.9 3.9 0 2.2 1.8 3.9 3.9 3.9 2.2 0 3.9-1.8 3.9-3.9s-1.7-3.9-3.9-3.9zM203.4 1270c-2.4 0-4.3 1.9-4.3 4.3s2 4.3 4.4 4.3 4.3-2 4.3-4.3c0-2.4-2-4.3-4.4-4.3zM291.8 132.5c-2.2 0-3.9 1.8-3.9 3.9 0 2.2 1.8 3.9 3.9 3.9 2.2 0 3.9-1.8 3.9-3.9 0-2.1-1.8-3.9-3.9-3.9zM141.8 26.9c-2.2 0-3.9 1.8-3.9 3.9 0 2.2 1.8 3.9 3.9 3.9 2.2 0 3.9-1.8 3.9-3.9 0-2.2-1.8-3.9-3.9-3.9zM209.6 243.5c-2.2 0-3.9 1.8-3.9 3.9 0 2.2 1.8 3.9 3.9 3.9 2.2 0 3.9-1.8 3.9-3.9 0-2.2-1.7-3.9-3.9-3.9zM250.4 219c-2.2 0-3.9 1.8-3.9 3.9 0 2.2 1.8 3.9 3.9 3.9 2.2 0 3.9-1.8 3.9-3.9s-1.7-3.9-3.9-3.9zM166.6 311.7c-2.2 0-3.9 1.8-3.9 3.9 0 2.2 1.8 3.9 3.9 3.9 2.2 0 3.9-1.8 3.9-3.9 0-2.2-1.8-3.9-3.9-3.9zM153.2 443.4c-2.2 0-3.9 1.8-3.9 3.9 0 2.2 1.8 3.9 3.9 3.9 2.2 0 3.9-1.8 3.9-3.9s-1.7-3.9-3.9-3.9zM192.4 1012c-4.3 0-7.8 3.5-7.8 7.8s3.5 7.8 7.8 7.8 7.8-3.5 7.8-7.8c0-4.4-3.5-7.9-7.8-7.8zM154.9 1185.4c-4.3 0-7.8 3.5-7.8 7.8s3.5 7.8 7.8 7.8 7.8-3.5 7.8-7.8-3.5-7.8-7.8-7.8zM317.2 1213.3c-4.3 0-7.8 3.5-7.8 7.8s3.5 7.8 7.8 7.8 7.8-3.5 7.8-7.8-3.5-7.8-7.8-7.8zM310.5 483.8c-2.2 0-3.9 1.8-3.9 3.9 0 2.2 1.8 3.9 3.9 3.9 2.2 0 3.9-1.8 3.9-3.9 0-2.2-1.7-3.9-3.9-3.9zM293.7 509.4c-2.2 0-3.9 1.8-3.9 3.9 0 2.2 1.8 3.9 3.9 3.9 2.2 0 3.9-1.8 3.9-3.9.1-2.2-1.7-3.9-3.9-3.9zM195.4 636.4c-2.2 0-3.9 1.8-3.9 3.9 0 2.2 1.8 3.9 3.9 3.9 2.2 0 3.9-1.8 3.9-3.9.1-2.2-1.7-3.9-3.9-3.9zM147.4 748.4c-2.2 0-3.9 1.8-3.9 3.9 0 2.2 1.8 3.9 3.9 3.9 2.2 0 3.9-1.8 3.9-3.9 0-2.2-1.8-3.9-3.9-3.9zM145.8 771.8c-2.2 0-3.9 1.8-3.9 3.9 0 2.2 1.8 3.9 3.9 3.9 2.2 0 3.9-1.8 3.9-3.9s-1.8-3.9-3.9-3.9zM304.8 868c-2.2 0-3.9 1.8-3.9 3.9 0 2.2 1.8 3.9 3.9 3.9 2.2 0 3.9-1.8 3.9-3.9 0-2.2-1.7-3.9-3.9-3.9zM339.1 1132.9c-2.2 0-3.9 1.8-3.9 3.9s1.8 3.9 3.9 3.9c2.2 0 3.9-1.8 3.9-3.9.1-2.2-1.7-4-3.9-3.9zM164.5 1207c-2.2 0-3.9 1.8-3.9 3.9 0 2.2 1.8 3.9 3.9 3.9 2.2 0 3.9-1.8 3.9-4 .1-2.1-1.7-3.8-3.9-3.8zM285.9 892.8c-2.2 0-3.9 1.8-3.9 3.9 0 2.2 1.8 3.9 3.9 3.9 2.2 0 3.9-1.8 3.9-3.9 0-2.2-1.8-3.9-3.9-3.9zM309.3 100.1c-4.8 0-8.6 3.9-8.6 8.7s3.9 8.6 8.7 8.6c4.8 0 8.6-3.9 8.6-8.7s-3.9-8.7-8.7-8.6zM301.2 120.4c-2.2 0-3.9 1.8-3.9 3.9 0 2.2 1.8 3.9 3.9 3.9 2.2 0 3.9-1.8 3.9-3.9 0-2.2-1.7-4-3.9-3.9zM323.3 80.7c-2.1 0-3.9 1.8-3.9 3.9 0 2.2 1.8 3.9 3.9 3.9 2.2 0 3.9-1.8 3.9-3.9 0-2.2-1.8-4-3.9-3.9zM144.2 4.4c-2.2 0-3.9 1.8-3.9 3.9 0 2.2 1.8 3.9 3.9 3.9 2.2 0 3.9-1.8 3.9-3.9s-1.7-4-3.9-3.9zM143.6 42.5c-2.2 0-3.9 1.8-3.9 3.9 0 2.2 1.8 3.9 3.9 3.9 2.2 0 3.9-1.8 3.9-3.9 0-2.2-1.8-3.9-3.9-3.9z" />
        <g class="st3">
          <path class="st1"
                d="M260.9-16.5c16.6 20.4 33 40.9 48.4 61.7 55.4 74.4 90.9 153.4 91.3 230.4.1 26.9-4 53.5-13 79.8-36.7 106.8-136.6 206.7-214 312.8-54.9 75.3-89.8 155.2-89.4 233.2.1 27.2 4.6 54.2 14 80.6 36.5 102.2 129.9 196.6 206.3 296h3.9c-76.8-100.2-170.9-195.2-207.2-297-9.3-26.1-13.7-52.7-13.8-79.6C87 824.3 121.6 745 176.2 670c77.1-105.9 177.2-205.8 214.4-313.6 9.1-26.5 13.3-53.6 13.1-80.8-.4-78.1-36.2-157.5-91.9-232.3-15-20.2-30.9-40.1-47-59.8h-3.9z" />
          <path class="st1"
                d="m297.5 451.6-114.9.6v2.6l114.9-.6v-2.6zM266.2 492.6l-51.9.3v2.6l51.9-.3v-2.6zM336.2 396.3l-185.4 1v2.6l185.4-1v-2.6zM347.2 341l-217.4 1.2v2.6l217.4-1.2V341zM369.2 285.8 125 287.1v2.6l244.2-1.3v-2.6zM363.3 230.7 118.4 232v2.6l244.9-1.3v-2.6zM333.8 175.7l-183.5 1v2.6l183.5-1v-2.6zM303.6 120.7l-122.8.7v2.6l122.8-.7v-2.6zM282 65.7l-75.2.4v2.6l75.2-.4v-2.6z" />
          <path class="st1"
                d="M303 445c-4.3 0-7.8 3.6-7.8 7.9 0 4.4 3.6 7.9 7.9 7.8 4.4 0 7.9-3.6 7.8-7.9h-2.6c0 2.9-2.3 5.3-5.2 5.3-2.9 0-5.3-2.3-5.3-5.2 0-2.9 2.3-5.3 5.2-5.3 2.9 0 5.3 2.3 5.3 5.2h2.6c.1-4.3-3.5-7.8-7.9-7.8zM210.5 488.1c-3.4 0-6.1 2.8-6.1 6.2 0 3.4 2.8 6.1 6.2 6.1s6.1-2.8 6.1-6.2h-2.6c0 2-1.6 3.5-3.5 3.6-2 0-3.5-1.6-3.5-3.5s1.6-3.5 3.5-3.6c2 0 3.5 1.6 3.6 3.5h2.6c-.2-3.4-2.9-6.1-6.3-6.1zM147 393c-3.3 0-5.9 2.7-5.9 5.9 0 3.3 2.7 5.9 5.9 5.9 3.3 0 5.9-2.7 5.9-5.9h-2.6c0 1.8-1.5 3.3-3.3 3.3s-3.3-1.5-3.3-3.3 1.5-3.3 3.3-3.3 3.3 1.5 3.3 3.3h2.6c0-3.3-2.6-5.9-5.9-5.9zM147 172.4c-3.3 0-5.9 2.7-5.9 5.9 0 3.3 2.7 5.9 5.9 5.9 3.3 0 5.9-2.7 5.9-5.9h-2.6c0 1.8-1.4 3.3-3.3 3.3-1.8 0-3.3-1.5-3.3-3.3s1.5-3.3 3.3-3.3 3.3 1.5 3.3 3.3h2.6c0-3.3-2.7-5.9-5.9-5.9zM202.8 62.5c-3.3 0-5.9 2.7-5.9 5.9 0 3.3 2.7 5.9 5.9 5.9 3.3 0 5.9-2.7 5.9-5.9h-2.6c0 1.8-1.4 3.3-3.3 3.3-1.8 0-3.3-1.5-3.3-3.3s1.5-3.3 3.3-3.3 3.3 1.5 3.3 3.3h2.6c.1-3.3-2.6-5.9-5.9-5.9zM355.5 332.8c-5.6 0-10.2 4.6-10.1 10.2 0 5.6 4.6 10.1 10.2 10.1s10.1-4.6 10.1-10.2h-2.6c0 4.2-3.3 7.6-7.5 7.6s-7.6-3.3-7.6-7.5 3.3-7.6 7.5-7.6 7.6 3.3 7.6 7.5h2.6c0-5.6-4.6-10.1-10.2-10.1zM117.5 279.6c-4.8 0-8.8 4-8.7 8.8h2.6c0-3.4 2.7-6.2 6.1-6.2s6.2 2.7 6.2 6.1-2.7 6.2-6.1 6.2-6.2-2.7-6.2-6.1h-2.6c0 4.8 4 8.8 8.8 8.7 4.8 0 8.8-4 8.7-8.8 0-4.8-3.9-8.7-8.8-8.7zM311.3 111.8c-4.8 0-8.7 4-8.7 8.8h2.6c0-3.4 2.7-6.2 6.1-6.2s6.2 2.7 6.2 6.1c0 3.4-2.7 6.2-6.1 6.2s-6.2-2.7-6.2-6.1h-2.6c0 4.8 4 8.8 8.8 8.7 4.8 0 8.8-4 8.7-8.8s-4-8.7-8.8-8.7zM369.3 223.8c-4.8 0-8.8 4-8.7 8.8h2.6c0-3.4 2.7-6.2 6.1-6.2s6.2 2.7 6.2 6.1c0 3.4-2.7 6.2-6.1 6.2s-6.2-2.7-6.2-6.1h-2.6c0 4.8 4 8.8 8.8 8.7 4.9 0 8.8-4 8.7-8.8 0-4.9-3.9-8.8-8.8-8.7zM178 460.1c3.6 0 6.6-2.9 6.6-6.6 0-3.6-2.9-6.6-6.6-6.6-3.6 0-6.6 2.9-6.6 6.6.1 3.7 3 6.6 6.6 6.6zM267.8 489.2c-2.1 0-3.8 1.7-3.8 3.8 0 2.1 1.7 3.8 3.8 3.8s3.8-1.7 3.8-3.8-1.7-3.8-3.8-3.8zM119.4 227.1c-3.6 0-6.5 3-6.5 6.6s3 6.6 6.6 6.5c3.6 0 6.5-3 6.5-6.6-.1-3.6-3-6.5-6.6-6.5zM339.8 391c-3.6 0-6.6 3-6.5 6.6 0 3.6 3 6.5 6.6 6.5s6.5-3 6.5-6.6c-.1-3.6-3-6.5-6.6-6.5zM368.8 282.1c-3.6 0-6.5 3-6.5 6.6s3 6.5 6.6 6.5 6.5-3 6.5-6.6-3-6.5-6.6-6.5zM181.5 115c-3.6 0-6.5 3-6.5 6.6s3 6.5 6.6 6.5 6.5-3 6.5-6.6c-.1-3.6-3-6.5-6.6-6.5zM282.3 63.3c-2 0-3.6 1.6-3.6 3.6s1.6 3.6 3.6 3.6 3.6-1.6 3.6-3.6-1.6-3.6-3.6-3.6zM338.3 170.3c-3.6 0-6.6 3-6.5 6.6 0 3.6 3 6.5 6.6 6.5s6.5-3 6.5-6.6-2.9-6.5-6.6-6.5zM126.9 340.3c-2.2 0-3.9 1.8-3.9 4s1.8 3.9 4 3.9 3.9-1.8 3.9-4c-.1-2.2-1.9-3.9-4-3.9zM307.9 729.9l-114.9.6v2.6l114.9-.6v-2.6zM276.2 689.2l-51.9.3v2.6l51.9-.3v-2.6zM339.7 784.9l-185.4 1v2.6l185.4-1v-2.6zM360.7 839.9l-217.4 1.2v2.6l217.4-1.2v-2.6zM365.6 895l-244.2 1.3v2.6l244.2-1.3V895zM372.1 950.1l-244.9 1.3v2.6l244.9-1.3v-2.6zM340.2 1005.5l-183.5 1v2.6l183.5-1v-2.6zM309.7 1060.8l-122.8.7v2.6l122.8-.7v-2.6zM283.7 1116l-75.2.4v2.6l75.2-.4v-2.6z" />
          <path class="st1"
                d="M187.4 724c-4.3 0-7.9 3.6-7.8 7.9h2.6c0-2.9 2.3-5.3 5.2-5.3s5.3 2.3 5.3 5.2-2.3 5.3-5.2 5.3-5.3-2.3-5.3-5.2h-2.6c0 4.3 3.6 7.8 7.9 7.8s7.9-3.6 7.8-7.9c0-4.3-3.6-7.8-7.9-7.8zM280 684.4c-3.4 0-6.1 2.8-6.1 6.2h2.6c0-2 1.6-3.5 3.5-3.6s3.5 1.6 3.6 3.5c0 2-1.6 3.5-3.5 3.6-2 0-3.5-1.6-3.6-3.5h-2.6c0 3.4 2.8 6.1 6.2 6.1 3.4 0 6.1-2.8 6.1-6.2-.1-3.4-2.8-6.2-6.2-6.1zM343.4 779.9c-3.3 0-5.9 2.7-5.9 5.9h2.6c0-1.8 1.5-3.3 3.3-3.3s3.3 1.5 3.3 3.3-1.5 3.3-3.3 3.3-3.3-1.5-3.3-3.3h-2.6c0 3.3 2.7 5.9 5.9 5.9 3.3 0 5.9-2.7 5.9-5.9s-2.6-5.9-5.9-5.9zM343.5 1000.5c-3.3 0-5.9 2.7-5.9 5.9h2.6c0-1.8 1.5-3.3 3.3-3.3s3.3 1.5 3.3 3.3c0 1.8-1.4 3.3-3.3 3.3-1.8 0-3.3-1.5-3.3-3.3h-2.6c0 3.2 2.7 5.9 5.9 5.9 3.3 0 5.9-2.7 5.9-5.9 0-3.3-2.7-5.9-5.9-5.9zM287.6 1110.5c-3.3 0-5.9 2.7-5.9 5.9h2.6c0-1.8 1.5-3.3 3.3-3.3s3.3 1.5 3.3 3.3-1.5 3.3-3.3 3.3-3.3-1.5-3.3-3.3h-2.6c0 3.2 2.7 5.9 5.9 5.9 3.3 0 5.9-2.7 5.9-5.9 0-3.3-2.7-5.9-5.9-5.9zM134.9 831.6c-5.6 0-10.1 4.6-10.1 10.2h2.6c0-4.2 3.3-7.6 7.5-7.6s7.6 3.3 7.6 7.5-3.3 7.6-7.5 7.6-7.6-3.3-7.6-7.5h-2.6c0 5.6 4.6 10.2 10.2 10.1 5.6 0 10.2-4.6 10.1-10.2 0-5.6-4.6-10.1-10.2-10.1zM372.9 887.6c-4.8 0-8.8 4-8.7 8.8 0 4.8 4 8.8 8.8 8.7 4.9 0 8.8-4 8.7-8.8h-2.6c0 3.4-2.7 6.2-6.1 6.2s-6.2-2.7-6.2-6.1c0-3.4 2.7-6.2 6.1-6.2s6.2 2.7 6.2 6.1h2.6c0-4.8-4-8.7-8.8-8.7zM179.1 1055.4c-4.8 0-8.8 4-8.7 8.8 0 4.8 4 8.7 8.8 8.7s8.8-4 8.7-8.8h-2.6c0 3.4-2.7 6.2-6.1 6.2s-6.2-2.7-6.2-6.1 2.7-6.2 6.1-6.2 6.2 2.7 6.2 6.1h2.6c0-4.8-3.9-8.7-8.8-8.7zM121.1 943.5c-4.8 0-8.8 4-8.7 8.8 0 4.8 4 8.8 8.8 8.7 4.8 0 8.8-4 8.7-8.8h-2.6c0 3.4-2.7 6.2-6.1 6.2s-6.2-2.7-6.2-6.1c0-3.4 2.7-6.2 6.1-6.2s6.2 2.7 6.2 6.1h2.6c0-4.8-4-8.8-8.8-8.7zM312.4 724.6c-3.6 0-6.5 3-6.5 6.6s3 6.5 6.6 6.5 6.6-3 6.5-6.6c0-3.6-2.9-6.5-6.6-6.5zM222.6 688c-2.1 0-3.8 1.7-3.8 3.8s1.7 3.8 3.8 3.8 3.8-1.7 3.8-3.8-1.7-3.8-3.8-3.8zM371.1 944.6c-3.6 0-6.5 3-6.5 6.6s3 6.5 6.6 6.5 6.5-3 6.5-6.6c-.1-3.6-3-6.5-6.6-6.5zM150.6 780.6c-3.6 0-6.5 3-6.5 6.6s3 6.5 6.6 6.5 6.6-3 6.5-6.6-2.9-6.5-6.6-6.5zM121.6 889.5c-3.6 0-6.5 3-6.5 6.6s3 6.6 6.6 6.5c3.6 0 6.5-3 6.5-6.6 0-3.5-3-6.5-6.6-6.5zM310.2 1069.6c3.6-.6 6-4 5.4-7.6s-4-6-7.6-5.4-6 4-5.4 7.6 4 6 7.6 5.4zM208.2 1114.3c-2 0-3.6 1.6-3.6 3.6s1.6 3.6 3.6 3.6 3.6-1.6 3.6-3.6-1.6-3.6-3.6-3.6zM153.7 1014.3c3.5-.9 5.7-4.4 4.8-7.9s-4.4-5.7-7.9-4.8c-3.5.8-5.7 4.4-4.8 7.9.8 3.5 4.3 5.6 7.9 4.8zM363.6 836.6c-2.2 0-3.9 1.8-3.9 4s1.8 3.9 4 3.9 3.9-1.8 3.9-4c-.1-2.1-1.8-3.9-4-3.9zM176 45.5c3.6 0 6.6-2.9 6.6-6.6 0-3.7-2.9-6.6-6.6-6.6-3.6 0-6.6 2.9-6.6 6.6s2.9 6.6 6.6 6.6zM160.1 57.2c-3.6 0-6.5 3-6.5 6.6s3 6.5 6.6 6.5 6.5-3 6.5-6.6c-.1-3.6-3-6.5-6.6-6.5zM127.1 419.2c-3.6 0-6.6 3-6.5 6.6 0 3.6 3 6.5 6.6 6.5s6.6-3 6.5-6.6c-.1-3.6-2.9-6.5-6.6-6.5zM111 384.4c-7.2 0-13 5.9-13 13.1s5.9 13 13.2 13c7.2 0 13-5.9 13-13.2-.1-7.1-6-12.9-13.2-12.9zM324.7 671.7c-7.2 0-13 5.9-13 13.2 0 7.2 5.9 13 13.2 13 7.2 0 13-5.9 13-13.2-.1-7.2-6-13-13.2-13zM314.9 483.6c-3.6 0-6.5 3-6.5 6.6s3 6.6 6.6 6.5 6.5-3 6.5-6.6-2.9-6.5-6.6-6.5zM346.6 439.1c-3.6 0-6.5 3-6.5 6.6s3 6.6 6.6 6.5c3.6 0 6.5-3 6.5-6.6s-2.9-6.5-6.6-6.5zM219 619.2c3.6 0 6.6-3 6.5-6.6 0-3.6-3-6.6-6.6-6.5-3.6 0-6.6 3-6.5 6.6 0 3.6 3 6.6 6.6 6.5zM96.6 817.5c-3.6 0-6.5 3-6.5 6.6s3 6.5 6.6 6.5 6.5-3 6.5-6.6-3-6.5-6.6-6.5zM93.1 837.9c-3.6 0-6.5 3-6.5 6.6s3 6.5 6.6 6.5 6.5-3 6.5-6.6c-.1-3.6-3-6.5-6.6-6.5zM89.2 892.7c2.6-2.6 2.6-6.7 0-9.3s-6.7-2.6-9.3 0-2.6 6.7 0 9.3 6.8 2.6 9.3 0zM366 1050.7c3.6 0 6.6-3 6.5-6.6 0-3.6-3-6.5-6.6-6.5s-6.6 3-6.5 6.6c0 3.6 2.9 6.6 6.6 6.5zM337 1083.6c-3.6 0-6.5 3-6.5 6.6s3 6.6 6.6 6.5c3.6 0 6.5-3 6.5-6.6s-2.9-6.5-6.6-6.5zM192.9 27.1c3.6-.6 6-4 5.4-7.6s-4-6-7.6-5.4-6 4-5.4 7.6c.7 3.6 4 6 7.6 5.4zM143.5 82c-3.6 0-6.5 3-6.5 6.6s3 6.5 6.6 6.5 6.5-3 6.5-6.6c-.1-3.6-3-6.5-6.6-6.5zM103.6 364.1c-3.6 0-6.6 3-6.5 6.6 0 3.6 3 6.5 6.6 6.5s6.5-3 6.5-6.6-3-6.5-6.6-6.5zM361.1 417.2c-3.6 0-6.5 3-6.5 6.6s3 6.5 6.6 6.5 6.5-3 6.5-6.6-3-6.5-6.6-6.5zM333 473.3c3.6 0 6.6-3 6.5-6.6 0-3.6-3-6.6-6.6-6.5-3.6 0-6.6 3-6.5 6.6 0 3.6 3 6.5 6.6 6.5zM205.2 622.2c-3.6 0-6.5 3-6.5 6.6s3 6.5 6.6 6.5 6.5-3 6.5-6.6c0-3.6-2.9-6.5-6.6-6.5zM94 867.8c0-3.6-2.9-6.6-6.5-6.6s-6.6 2.9-6.6 6.5 2.9 6.6 6.5 6.6c3.6.1 6.6-2.9 6.6-6.5zM84.7 900.4c-3.6 0-6.5 3-6.5 6.6s3 6.5 6.6 6.5 6.6-3 6.5-6.6c0-3.6-3-6.5-6.6-6.5zM351.5 1061.7c-3.6 0-6.6 3-6.5 6.6 0 3.6 3 6.6 6.6 6.5 3.6 0 6.5-3 6.5-6.6-.1-3.6-3-6.5-6.6-6.5zM319.7 1103.3c-3.6 0-6.5 3-6.5 6.6s3 6.6 6.6 6.5c3.6 0 6.6-3 6.5-6.6s-3-6.5-6.6-6.5z" />
        </g>
      </g>
    </pattern>
  </defs>
  <rect width="100%"
        height="100%"
        fill="url(#bg)" />
</svg>