<svg width="64"
     height="64"
     viewBox="0 0 64 64"
     fill="none"
     xmlns="http://www.w3.org/2000/svg">
  <path fill-rule="evenodd"
        clip-rule="evenodd"
        d="M26.7512 3.71608C28.7763 3.33302 29.4614 0.0711584 32.2407 0C34.8253 0.0168807 35.8989 3.5213 37.9558 3.95059C40.0123 4.37962 41.9396 1.5486 44.5802 2.57547C46.9126 3.57013 46.5854 7.12753 48.2883 8.28866C49.9911 9.45005 52.7822 7.62772 54.7977 9.54276C56.6133 11.3822 54.8946 14.6194 56.0453 16.3773C57.1961 18.135 60.5608 17.4959 61.7019 20.0893C62.648 22.4419 59.9009 24.726 60.2839 26.7512C60.667 28.7763 63.9288 29.4614 64 32.2407C63.9831 34.8253 60.4787 35.8989 60.0494 37.9558C59.6204 40.0123 62.4514 41.9396 61.4245 44.5802C60.4299 46.9126 56.8725 46.5854 55.7113 48.2883C54.55 49.9911 56.3723 52.7822 54.4572 54.7977C52.6178 56.6133 49.3806 54.8946 47.6227 56.0453C45.865 57.1961 46.5041 60.5608 43.9107 61.7019C41.5581 62.648 39.274 59.9009 37.2488 60.2839C35.2237 60.667 34.5386 63.9288 31.7593 64C29.1747 63.9831 28.1011 60.4787 26.0442 60.0494C23.9877 59.6204 22.0604 62.4514 19.4198 61.4245C17.0874 60.4299 17.4146 56.8725 15.7117 55.7113C14.0089 54.55 11.2178 56.3723 9.20229 54.4572C7.38671 52.6178 9.10542 49.3806 7.95468 47.6227C6.80394 45.865 3.43924 46.5041 2.29811 43.9107C1.35201 41.5581 4.09914 39.274 3.71608 37.2488C3.33302 35.2237 0.0711584 34.5386 0 31.7593C0.0168807 29.1747 3.5213 28.1011 3.95059 26.0442C4.37962 23.9877 1.5486 22.0604 2.57547 19.4198C3.57013 17.0874 7.12753 17.4146 8.28866 15.7117C9.45005 14.0089 7.62772 11.2178 9.54276 9.20229C11.3822 7.38671 14.6194 9.10542 16.3773 7.95468C18.135 6.80394 17.4959 3.43924 20.0893 2.29811C22.4419 1.35201 24.726 4.09914 26.7512 3.71608ZM24.0466 51.1666C24.0378 51.4533 24.0352 51.7309 24.0383 51.9968C24.0445 52.5258 23.9474 53.0325 23.7656 53.4971C26.3219 54.4783 29.0986 55.0164 32 55.0164C34.9014 55.0164 37.6781 54.4783 40.2344 53.4971C40.0526 53.0325 39.9555 52.5258 39.9617 51.9968C39.9648 51.7306 39.9617 51.4533 39.9518 51.1666H24.0466ZM47.7499 15.2225C47.1123 21.0393 44.9376 27.4077 39.3857 32.0566C44.8573 36.7944 47.1487 43.4677 47.7728 48.756C52.2308 44.5582 55.0164 38.6019 55.0164 32C55.0164 25.3867 52.2212 19.4213 47.7499 15.2225ZM16.2431 15.2292C11.7757 19.4281 8.98362 25.3906 8.98362 32C8.98362 38.5967 11.765 44.5488 16.2176 48.7469C16.8123 43.4656 19.0149 36.7975 24.4237 32.0564C18.9375 27.4033 16.8544 21.0369 16.2431 15.2292ZM38.1061 43.3755H25.8022C25.0784 44.9745 24.6224 46.6166 24.3557 48.153H39.6194C39.3356 46.6155 38.8556 44.9734 38.1061 43.3755ZM31.8857 36.4986C30.0787 37.5506 28.6646 38.8873 27.5664 40.3619H36.2885C35.1611 38.8857 33.7177 37.5485 31.8857 36.4986ZM36.3765 23.6381H27.4827C28.5818 25.1169 30.0169 26.4556 31.8863 27.5474C33.7813 26.4569 35.2471 25.1184 36.3765 23.6381ZM39.5929 15.847H24.3855C24.6432 17.4408 25.068 19.0653 25.7479 20.6245H38.1661C38.8715 19.0666 39.3195 17.4424 39.5929 15.847ZM40.2352 10.5031C37.6781 9.52173 34.9014 8.98362 32 8.98362C29.0986 8.98362 26.3219 9.52173 23.7648 10.5031C23.93 10.9257 24.0253 11.3835 24.0365 11.8629C24.044 12.1813 24.0557 12.5052 24.0728 12.8335H39.9256C39.9438 12.5052 39.956 12.1816 39.9635 11.8629C39.9747 11.3835 40.07 10.9257 40.2352 10.5031Z"
        fill="#107681">
  </path>
</svg>